<?xml version="1.0" encoding="iso-8859-1"?>
<!-- Generator: Adobe Illustrator 28.6.0, SVG Export Plug-In . SVG Version: 9.03 Build 54939)  -->
<svg version="1.1" id="Layer_1" xmlns="http://www.w3.org/2000/svg" xmlns:xlink="http://www.w3.org/1999/xlink" x="0px" y="0px"
	 width="80.463px" height="79.206px" viewBox="0 0 80.463 79.206" enable-background="new 0 0 80.463 79.206" xml:space="preserve">
<path d="M44.289,19.135c0.13-0.244,0.318-0.411,0.606-0.423c0.421-0.018,0.83,0.046,1.224,0.199
	c3.491,1.36,6.967,2.742,10.133,4.799c0.841,0.546,1.215,1.17,1.178,2.169c-0.102,2.816,0.301,5.603,0.55,8.399
	c0.097,1.087,0.128,2.181,0.138,3.273c0.018,1.769-0.011,3.538-0.01,5.308c0,0.944-0.179,1.863-0.358,2.782
	c-0.113,0.579-0.473,0.911-1.064,0.971c-0.414,0.042-0.829,0.097-1.243,0.096c-2.911-0.008-5.827,0.146-8.729-0.254
	c-0.593-0.082-1.202-0.093-1.969,0.015c0.819,0.668,1.478,1.023,2.383,0.547c0.343-0.18,0.81-0.172,1.22-0.171
	c3.122,0.008,6.246-0.028,9.365,0.081c1.712,0.06,3.422,0.25,5.14,0.236c0.258-0.002,0.515,0,0.773,0
	c0.07-0.433-0.274-0.439-0.47-0.552c-0.629-0.365-1.305-0.661-1.837-1.171c-0.22-0.211-0.4-0.472-0.562-0.732
	c-0.128-0.205,0.093-0.569,0.34-0.585c0.204-0.013,0.425-0.039,0.614,0.019c0.545,0.169,1.098,0.336,1.613,0.578
	c1.553,0.732,3.09,1.498,4.631,2.254c0.186,0.091,0.374,0.187,0.543,0.306c0.275,0.193,0.482,0.453,0.254,0.784
	c-0.351,0.511-0.349,1.078-0.341,1.651c0.024,1.612,0.11,3.221,0.174,4.831c0.166,4.156,0.583,8.307,0.413,12.474
	c-0.023,0.569-0.09,1.14-0.187,1.701c-0.087,0.505-0.35,0.855-0.949,0.821c-0.254-0.014-0.523,0.025-0.769,0.097
	c-2.505,0.733-5.037,0.583-7.582,0.281c-1.445-0.171-2.901-0.247-4.344-0.426c-2.328-0.289-4.665-0.36-7.007-0.363
	c-0.475-0.001-0.919-0.105-1.362-0.286c-0.43-0.176-0.892-0.276-1.341-0.403c-0.266-0.075-0.55-0.064-0.713,0.166
	c-0.427,0.6-1.045,0.597-1.677,0.611c-4.316,0.096-8.633,0.192-12.948,0.302c-0.987,0.025-1.975,0.075-2.957,0.167
	c-1.362,0.129-2.703-0.035-4.04-0.235c-1.026-0.153-1.727-0.712-1.854-1.804c-0.078-0.67-0.154-1.345-0.154-2.018
	c0-4.892,0.021-9.783,0.032-14.675c0.001-0.467-0.004-0.937-0.052-1.401c-0.035-0.338-0.264-0.559-0.607-0.62
	c-0.204-0.036-0.414-0.055-0.621-0.05c-1.278,0.029-2.473-0.272-3.548-0.905c-0.518,0.214-0.358,0.634-0.362,0.963
	c-0.033,2.862-0.041,5.724-0.07,8.586c-0.023,2.184-0.317,4.357-0.238,6.548c0.06,1.65-0.166,1.596,1.44,2.618
	c0.877,0.558,1.719,1.171,2.559,1.784c0.246,0.179,0.444,0.433,0.636,0.674c0.1,0.126,0.078,0.305-0.04,0.424
	c-0.065,0.065-0.196,0.132-0.27,0.109c-0.347-0.104-0.705-0.201-1.021-0.37c-2.068-1.108-4.026-2.39-5.869-3.842
	c-0.196-0.154-0.357-0.376-0.475-0.598c-0.069-0.131,0.039-0.3,0.203-0.353c0.093-0.03,0.204-0.025,0.304-0.012
	c1.115,0.145,1.201,0.108,1.056-0.919c-0.221-1.561-0.208-3.109,0.002-4.665c0.055-0.411,0.043-0.831,0.05-1.247
	c0.047-2.968,0.351-5.917,0.671-8.863c0.05-0.463,0.148-0.928,0.292-1.371c0.263-0.809,1.027-1.186,1.862-0.941
	c0.348,0.102,0.68,0.257,1.019,0.39c2.718,1.064,5.536,1.361,8.426,1.102c0.414-0.037,0.826-0.127,1.24-0.132
	c4.16-0.054,8.306-0.55,12.473-0.405c0.307,0.011,0.614,0.001,0.923,0.001c0.045-0.478-0.524-0.41-0.548-0.682
	c-0.059-0.664-0.451-0.693-0.974-0.677c-1.091,0.032-2.185-0.022-3.265,0.211c-0.356,0.077-0.731,0.095-1.032,0.323
	c-0.654,0.494-1.363,0.42-2.087,0.23c-0.453-0.119-0.904-0.241-1.356-0.363c-1.154-0.311-2.293-0.671-3.497-0.774
	c-0.739-0.063-0.904-0.274-0.967-0.974c-0.033-0.362-0.034-0.728-0.04-1.092c-0.028-1.872-0.135-3.741-0.204-5.611
	c-0.143-3.845-0.518-7.684-0.392-11.539c0.031-0.939,0.074-1.872,0.363-2.772c0.04-0.123,0.189-0.25,0.317-0.299
	c0.265-0.101,0.4,0.131,0.437,0.313c0.093,0.455,0.159,0.921,0.182,1.385c0.144,2.909,0.178,5.826,0.434,8.725
	c0.271,3.068,0.239,6.132,0.242,9.2c0.001,1.476,0.004,1.502,1.526,1.803c1.024,0.202,2.025,0.468,2.997,0.848
	c0.145,0.057,0.289,0.119,0.44,0.153c0.241,0.055,0.421-0.059,0.456-0.291c0.047-0.307,0.054-0.621,0.053-0.933
	c-0.005-3.487,0.033-6.974-0.04-10.459c-0.039-1.87-0.243-3.736-0.215-5.611c0.018-1.19-0.075-2.384,0.212-3.522
	c-0.359-0.377-0.796-0.374-1.186-0.496c-0.843-0.264-1.689-0.517-2.523-0.806c-0.445-0.154-0.903-0.374-1.06-0.854
	c-0.17-0.522-0.506-0.589-0.963-0.529c-0.203,0.027-0.418,0.034-0.617-0.005c-0.167-0.033-0.234-0.211-0.165-0.359
	c0.062-0.134,0.178-0.26,0.301-0.344c0.52-0.357,1.105-0.576,1.705-0.754c2.701-0.797,5.469-1.233,8.261-1.568
	c2.125-0.255,4.246-0.374,6.38-0.211c-0.054,0.479-0.357,0.742-0.79,0.859c-0.651,0.176-1.302,0.377-1.967,0.476
	c-2.979,0.443-5.964,0.853-8.946,1.276c-0.36,0.051-0.725,0.085-1.075,0.178c-0.367,0.098-0.805,0.016-1.229,0.392
	c0.32,0.106,0.51,0.167,0.699,0.231c1.525,0.52,3.102,0.927,4.556,1.602c1.005,0.466,1.984,0.571,3.02,0.518
	c1.815-0.094,3.632-0.191,5.441-0.364c2.794-0.266,5.585-0.536,8.395-0.56c0.209-0.002,0.521,0.151,0.651-0.265
	c-1.025-0.401-2.057-0.753-3.045-1.204C48.031,21.36,45.96,20.61,44.289,19.135z M67.039,53.112c0-1.092,0.003-2.184-0.002-3.276
	c-0.001-0.311,0.002-0.625-0.043-0.931c-0.042-0.287-0.25-0.46-0.544-0.448c-0.83,0.035-1.66,0.13-2.489,0.131
	c-4.108,0.005-8.216-0.004-12.323-0.032c-0.776-0.005-1.552-0.126-2.328-0.181c-0.413-0.029-0.829-0.057-1.241-0.033
	c-0.276,0.016-0.469,0.221-0.538,0.493c-0.051,0.199-0.085,0.41-0.081,0.615c0.033,1.871,0.019,3.746,0.128,5.613
	c0.215,3.683,0.548,7.359,0.524,11.053c-0.003,0.415-0.005,0.833,0.026,1.246c0.028,0.365,0.259,0.556,0.628,0.538
	c0.622-0.031,1.244-0.116,1.866-0.119c2.026-0.009,4.047-0.018,6.071,0.237c2.007,0.252,4.047,0.235,6.054,0.489
	c1.318,0.167,2.59,0.049,3.876-0.119c0.773-0.101,1.018-0.345,1.028-1.105c0.015-1.039,0.001-2.082-0.078-3.117
	C67.293,60.485,67.126,56.801,67.039,53.112z M38.932,26.02c-0.936,0-1.872,0.004-2.808-0.001c-0.662-0.004-0.813,0.14-0.796,0.83
	c0.007,0.311,0.051,0.622,0.075,0.933c0.175,2.332,0.436,4.662,0.502,6.997c0.092,3.274,0.216,6.554-0.119,9.825
	c-0.041,0.401,0.137,0.546,0.576,0.499c1.446-0.155,2.88-0.395,4.341-0.442c3.492-0.113,6.959,0.343,10.442,0.398
	c0.207,0.003,0.414,0.039,0.62,0.073c1.292,0.211,2.596,0.134,3.895,0.155c0.682,0.011,0.842-0.164,0.835-0.823
	c-0.015-1.301-0.097-2.602-0.073-3.901c0.048-2.659-0.223-5.303-0.424-7.943c-0.163-2.133-0.262-4.254-0.179-6.387
	c0.008-0.207,0.035-0.418,0.007-0.621c-0.029-0.218-0.171-0.378-0.402-0.412c-0.205-0.03-0.413-0.048-0.62-0.052
	c-2.709-0.049-5.398,0.279-8.095,0.446C44.115,25.751,41.539,26.16,38.932,26.02z M22.825,65.803c0,0.523-0.008,0.732,0.001,0.939
	c0.035,0.784,0.239,0.989,1.036,1.045c0.104,0.007,0.208,0.01,0.312,0.006c2.491-0.082,4.987,0.056,7.477-0.191
	c0.822-0.082,1.66-0.011,2.49,0.016c0.83,0.027,1.658,0.107,2.488,0.129c1.557,0.04,3.119-0.026,4.66,0.287
	c0.151,0.031,0.31,0.025,0.466,0.031c1.396,0.059,1.566-0.127,1.425-1.467c-0.087-0.825-0.183-1.655-0.188-2.483
	c-0.023-3.794-0.017-7.587-0.015-11.381c0-0.988,0.094-1.968,0.233-2.949c0.128-0.901-0.1-1.153-0.977-1.178
	c-0.778-0.022-1.567-0.062-2.336,0.033c-2.07,0.256-4.148,0.224-6.225,0.281c-0.518,0.014-1.034,0.085-1.552,0.124
	c-2.542,0.194-5.093,0.285-7.627,0.024c-1.318-0.135-1.432,0.174-1.297,1.342c0.012,0.103,0.034,0.205,0.045,0.308
	c0.308,2.904,0.261,5.814,0.03,8.715C23.095,61.662,23.21,63.907,22.825,65.803z M44.588,57.739c0.028,0,0.055,0,0.083,0
	c0,1.818-0.004,3.635,0.001,5.453c0.003,1.039,0,2.078,0.038,3.116c0.031,0.854,0.212,1.042,1.062,1.296
	c0.581,0.174,0.929-0.068,0.891-0.671c-0.048-0.776-0.17-1.548-0.216-2.324c-0.144-2.435-0.267-4.871-0.4-7.306
	c-0.011-0.207-0.037-0.414-0.057-0.62c-0.233-2.434-0.299-4.868-0.006-7.304c0.031-0.254,0.031-0.518,0.001-0.772
	c-0.032-0.268-0.411-0.523-0.706-0.502c-0.289,0.02-0.511,0.188-0.557,0.458c-0.079,0.457-0.127,0.924-0.129,1.387
	C44.582,52.546,44.588,55.142,44.588,57.739z M42.142,46.364c-0.043,0.022-0.125,0.056-0.122,0.065
	c0.068,0.228,0.273,0.25,0.462,0.288c0.032,0.006,0.094-0.037,0.111-0.073C42.657,46.514,42.374,46.339,42.142,46.364z"/>
<path d="M20.523,45.763c-1.605,0.011-3.217,0.093-4.801-0.272c-0.151-0.035-0.306-0.052-0.457-0.086
	c-0.163-0.036-0.268-0.141-0.304-0.304c-0.04-0.18,0.064-0.298,0.208-0.37c0.138-0.069,0.286-0.132,0.437-0.154
	c0.562-0.082,1.126-0.202,1.691-0.209c2.385-0.029,4.77-0.029,7.155-0.025c0.513,0.001,1.04-0.039,1.508,0.263
	c0.168,0.108,0.212,0.414,0.045,0.517c-0.174,0.108-0.349,0.236-0.541,0.289c-0.7,0.193-1.407,0.357-2.142,0.352
	C22.389,45.758,21.456,45.763,20.523,45.763z"/>
<path d="M50.729,58.701c0.031-2.945,1.143-4.751,3.38-5.802c1.48-0.695,3.028-0.635,4.556-0.119
	c0.762,0.257,1.356,0.758,1.789,1.436c0.141,0.221,0.25,0.484,0.105,0.735c-0.159,0.275-0.448,0.238-0.69,0.151
	c-0.751-0.27-1.528-0.313-2.307-0.255c-1.71,0.126-3.176,0.738-3.869,2.423c-0.681,1.657-0.494,3.276,0.682,4.679
	c0.999,1.191,2.229,2.018,3.853,2.076c1.1,0.039,1.904-0.394,2.329-1.455c0.133-0.333,0.309-0.656,0.51-0.953
	c0.221-0.328,0.7-0.215,0.87,0.17c0.131,0.297,0.159,0.597,0.11,0.912c-0.226,1.455-1.305,2.536-2.79,2.751
	c-1.264,0.183-2.489,0.017-3.649-0.53c-1.738-0.819-3.131-2.03-4.087-3.709C50.997,60.293,50.685,59.309,50.729,58.701z"/>
<path d="M40.127,39.547c0.13-0.589,0.27-1.248,0.423-1.905c0.117-0.506,0.266-1.006,0.371-1.514
	c0.072-0.351-0.113-0.565-0.507-0.627c-0.307-0.049-0.619-0.062-0.924-0.119c-0.071-0.013-0.159-0.138-0.168-0.219
	c-0.01-0.088,0.037-0.213,0.104-0.273c0.322-0.294,0.755-0.354,1.151-0.433c0.717-0.143,1.05-0.581,1.229-1.242
	c0.257-0.953,0.548-1.898,0.837-2.842c0.198-0.648,0.438-1.283,0.839-1.837c0.846-1.17,2.103-1.347,3.261-0.472
	c0.466,0.352,0.781,0.83,1.107,1.3c0.805,1.158,1.402,2.431,2.04,3.681c0.239,0.469,0.469,0.932,1.091,0.996
	c0.245,0.025,0.578,0.056,0.565,0.396c-0.007,0.167-0.209,0.329-0.333,0.486c-0.194,0.246-0.115,0.497,0.003,0.729
	c0.281,0.556,0.581,1.104,0.875,1.654c0.269,0.504,0.56,0.998,0.804,1.514c0.131,0.277,0.219,0.586,0.262,0.889
	c0.062,0.437-0.062,0.825-0.469,1.075c-0.345,0.212-0.693,0.174-1.042,0.012c-0.535-0.248-0.947-0.65-1.274-1.122
	c-0.561-0.812-1.092-1.646-1.623-2.478c-0.307-0.482-0.589-0.981-0.885-1.47c-0.24-0.397-0.603-0.551-1.055-0.526
	c-0.052,0.003-0.104,0.002-0.156,0.003c-2.167,0.073-2.315,0.18-3.283,2.177c-0.363,0.748-0.755,1.483-1.158,2.21
	c-0.253,0.455-0.56,0.875-1.01,1.168c-0.399,0.259-0.887,0.092-0.979-0.358C40.17,40.147,40.163,39.886,40.127,39.547z
	 M45.563,34.015c0.433,0,0.589,0.009,0.744-0.002c0.321-0.023,0.443-0.237,0.312-0.539c-0.041-0.095-0.08-0.195-0.142-0.276
	c-0.296-0.385-0.318-1.203-0.914-1.069c-0.453,0.102-0.47,0.849-0.593,1.344c-0.012,0.049-0.026,0.117-0.003,0.153
	c0.077,0.122,0.147,0.291,0.261,0.336C45.414,34.035,45.633,34.023,45.563,34.015z"/>
<path d="M31.51,66.219c-0.524-0.097-0.976,0.014-1.439,0.083c-0.987,0.148-1.607-0.294-1.766-1.285
	c-0.147-0.92-0.235-1.853-0.294-2.784c-0.086-1.345-0.09-2.694-0.181-4.042c-0.07-1.024,0.086-2.07,0.208-3.098
	c0.086-0.73,0.312-0.904,1.114-0.958c0.337-0.023,0.594-0.108,0.821-0.349c0.249-0.264,0.511-0.516,0.78-0.76
	c0.391-0.355,0.85-0.599,1.358-0.734c1.106-0.295,1.995,0.545,1.735,1.664c-0.092,0.397-0.296,0.771-0.465,1.148
	c-0.3,0.667-0.258,0.765,0.528,0.793c1.163,0.042,2.261,0.308,3.282,0.858c1.206,0.649,1.993,1.627,2.3,2.982
	c0.117,0.518,0.123,1.02,0.004,1.538c-0.468,2.037-1.742,3.367-3.617,4.185C34.465,66.077,32.959,66.13,31.51,66.219z M32.548,58.44
	c-0.001,0.016-0.001,0.032-0.002,0.048c-0.465,0-0.931-0.011-1.396,0.003c-0.748,0.023-0.911,0.168-0.819,0.953
	c0.163,1.385,0.371,2.766,0.599,4.142c0.097,0.584,0.373,0.774,0.995,0.72c1.362-0.117,2.64-0.494,3.731-1.362
	c0.494-0.393,0.876-0.878,1.129-1.458c0.399-0.915,0.174-1.732-0.65-2.313c-0.472-0.333-0.997-0.552-1.577-0.601
	C33.89,58.517,33.219,58.483,32.548,58.44z M30.777,55.318c0.462-0.105,0.627-0.381,0.83-0.601c0.273-0.295,0.332-0.635,0.129-0.626
	c-0.231,0.01-0.365,0.16-0.49,0.321C31.06,54.652,30.838,54.873,30.777,55.318z"/>
<g>
</g>
<g>
</g>
<g>
</g>
<g>
</g>
<g>
</g>
<g>
</g>
</svg>
