<?xml version="1.0" encoding="iso-8859-1"?>
<!-- Generator: Adobe Illustrator 28.6.0, SVG Export Plug-In . SVG Version: 9.03 Build 54939)  -->
<svg version="1.1" id="Layer_1" xmlns="http://www.w3.org/2000/svg" xmlns:xlink="http://www.w3.org/1999/xlink" x="0px" y="0px"
	 width="212.434px" height="205.914px" viewBox="0 0 212.434 205.914" enable-background="new 0 0 212.434 205.914"
	 xml:space="preserve">
<path d="M73.232,90.979c-0.92,0.086-1.84,0.25-2.759,0.245c-3.9-0.022-7.8-0.058-11.699-0.17c-1.122-0.032-2.4-0.296-2.629-1.628
	c-0.247-1.434,0.964-2.116,2.033-2.641c1.211-0.594,2.505-1.022,3.777-1.483c0.713-0.258,1.455-0.438,2.104-1.078
	c-3.177,0-6.359,0.108-9.53-0.032c-2.861-0.127-5.712-0.514-8.564-0.816c-0.466-0.049-0.949-0.186-1.368-0.395
	c-1.356-0.676-1.522-1.915-0.305-2.83c0.807-0.607,1.779-0.996,3.109-1.717c-0.914-0.172-1.454-0.289-1.999-0.374
	c-3.228-0.499-6.471-0.919-9.679-1.523c-1.145-0.216-2.291-0.74-3.286-1.363c-1.346-0.843-1.505-2.393-0.324-3.452
	c0.866-0.776,1.949-1.48,3.055-1.787c2.749-0.761,5.565-1.277,8.237-1.865c-0.089-0.042-0.43-0.247-0.798-0.365
	c-0.376-0.12-0.783-0.142-1.171-0.226c-5.06-1.102-10.127-2.174-15.172-3.338c-1.148-0.265-2.301-0.719-3.311-1.321
	c-1.967-1.172-1.976-2.499-0.17-3.866c0.177-0.134,0.367-0.251,0.805-0.547c-0.993-0.356-1.79-0.625-2.574-0.926
	c-2.378-0.913-4.802-1.729-7.106-2.804c-1.197-0.559-2.34-1.438-3.219-2.428c-1.688-1.902-1.136-4.36,1.235-5.266
	c1.532-0.586,3.248-0.875,4.895-0.94c5.529-0.218,10.99,0.467,16.413,1.531c15.505,3.039,30.333,8.13,44.686,14.676
	c1.306,0.596,2.632,1.151,3.961,1.694c1.826,0.745,3.565,1.109,5.698,0.832c2.698-0.351,5.543,0.248,8.302,0.609
	c2.03,0.265,4.023,0.806,6.155,0.857c-0.888-0.373-1.777-0.743-2.664-1.118c-3.818-1.616-7.674-3.15-11.432-4.894
	c-1.415-0.657-2.75-1.658-3.859-2.764c-1.52-1.517-1.126-3.234,0.922-3.894c1.476-0.475,3.113-0.523,4.687-0.597
	c1.142-0.053,2.296,0.163,3.445,0.259c0.038-0.163,0.075-0.326,0.113-0.489c-1.287-0.532-2.586-1.038-3.858-1.603
	c-2.329-1.035-4.699-2-6.939-3.203c-1.241-0.667-2.371-1.647-3.344-2.68c-2.091-2.222-1.417-4.314,1.58-5.087
	c1.062-0.274,2.174-0.351,3.639-0.576c-0.908-0.458-1.533-0.739-2.124-1.079c-1.52-0.872-3.059-1.719-4.526-2.675
	c-1.037-0.677-1.889-1.616-1.517-2.99c0.339-1.251,1.475-1.515,2.591-1.803c2.173-0.561,4.278-0.041,6.394,0.293
	c0.927,0.146,1.837,0.404,2.884,0.305c-0.735-0.41-1.478-0.805-2.203-1.233c-2.886-1.702-5.818-3.333-8.623-5.159
	c-1.177-0.766-2.24-1.837-3.07-2.976c-1.193-1.637-0.619-2.872,1.357-3.247c2.579-0.489,5.114,0.059,7.532,0.801
	c2.96,0.909,5.812,2.173,8.707,3.291c0.635,0.245,1.257,0.523,2.106,0.411c-0.673-0.481-1.331-0.984-2.02-1.44
	c-4.266-2.816-8.575-5.569-12.793-8.454c-1.97-1.348-3.842-2.864-5.624-4.454c-1.409-1.258-2.232-2.912-2.123-4.894
	c0.095-1.727,1.095-2.815,2.822-2.985c1.858-0.183,3.643,0.135,5.393,0.81c4.742,1.829,8.963,4.551,13.007,7.562
	c12.59,9.375,22.898,20.838,31.134,34.185c0.417,0.677,0.871,1.331,1.315,1.991c0.039,0.058,0.134,0.079,0.203,0.118
	c0.139-0.036,0.336-0.025,0.408-0.115c4.687-5.855,11.022-8.56,18.267-9.266c2.012-0.196,4.156,0.201,6.146,0.699
	c5.322,1.331,10.032,3.917,14.144,7.767c-0.55-0.126-1.14-0.165-1.643-0.394c-2.106-0.958-4.187-1.971-6.275-2.968
	c-3.403-1.626-6.88-3.095-10.711-3.162c-6.905-0.12-13.049,1.928-18,6.915c-0.709,0.714-1.88,1.438-1.204,2.839
	c0.038,0.079-0.078,0.333-0.115,0.332c-1.034-0.042-1.384,0.693-1.56,1.479c-0.471,2.093-1.222,4.204-1.211,6.304
	c0.014,2.678,0.569,5.373,1.078,8.024c0.405,2.11,1.214,4.141,1.628,6.25c0.972,4.944-1.29,8.416-6.276,9.166
	c-7.995,1.203-15.386-0.577-22.048-5.22c-1.477-2.268-3.999-2.618-6.262-3.499c-1.69-0.658-3.271-1.595-4.893-2.404
	c-0.832,3.061,0.112,6.29,2.473,8.252c0.613,0.509,1.345,0.883,1.925,1.423c1.745,1.624,3.447,3.296,5.155,4.959
	c0.227,0.221,0.397,0.5,0.589,0.756c4.167,5.578,5.667,7.966,15.497,9.058c-0.613,0.33-0.941,0.612-1.313,0.693
	c-6.339,1.382-11.478-0.619-15.519-5.601c-2.419-2.982-4.89-5.89-7.912-8.316c-2.173-1.744-3.1-4.219-3.176-6.982
	c-0.049-1.754-0.009-3.509-0.009-5.362c-2.284-0.889-4.504-1.745-6.718-2.618c-7.94-3.131-15.786-6.536-23.842-9.332
	c-8.896-3.088-18.098-5.187-27.408-6.639c-3.533-0.551-7.159-0.534-10.746-0.678c-0.933-0.037-1.92,0.179-2.813,0.481
	c-1.382,0.468-1.724,1.542-0.679,2.565c1.063,1.039,2.335,1.971,3.68,2.597c5.253,2.444,10.808,3.986,16.584,4.287
	c5.538,0.288,10.908,1.35,16.293,2.519c4.985,1.082,10.019,1.935,15.019,2.95c1.478,0.3,2.925,0.778,4.366,1.237
	c0.684,0.218,1.55,0.619,1.175,1.455c-0.199,0.446-1.186,0.87-1.727,0.778c-2.906-0.495-5.844-0.953-8.66-1.796
	c-8.74-2.618-17.673-4.251-26.688-5.453c-2.434-0.325-4.942-0.15-7.414-0.103c-0.644,0.012-1.28,0.41-1.987,0.654
	c0.416,1.537,1.584,1.858,2.584,2.144c2.603,0.744,5.227,1.471,7.889,1.94c6.75,1.188,13.524,2.234,20.291,3.322
	c0.549,0.088,1.117,0.051,1.674,0.088c5.016,0.337,10.032,0.666,15.045,1.031c0.79,0.058,1.569,0.282,2.352,0.433
	c0.699,0.135,1.317,0.504,1.076,1.252c-0.111,0.347-0.858,0.731-1.284,0.695c-2.146-0.178-4.278-0.505-6.419-0.751
	c-7.799-0.894-15.615-1.116-23.436-0.406c-2.289,0.208-4.573,0.637-6.813,1.163c-1.103,0.259-2.326,0.666-2.827,1.998
	c0.617,1.291,1.91,1.482,3.005,1.716c2.647,0.566,5.323,1.108,8.015,1.326c5.16,0.418,10.297,0.858,15.511-0.063
	c6.549-1.157,13.218-0.849,19.85-0.7c0.316,0.007,0.72-0.026,0.925,0.147c0.328,0.275,0.67,0.688,0.724,1.081
	c0.038,0.278-0.324,0.761-0.624,0.901c-0.409,0.19-0.929,0.176-1.403,0.189c-6.708,0.183-13.433,0.128-20.119,0.615
	c-4.101,0.298-8.144,1.406-12.205,2.196c-0.5,0.097-0.945,0.476-1.392,1.181c1.941,0.288,3.873,0.686,5.824,0.845
	c9.021,0.739,18.045,0.213,27.067-0.041c1.275-0.036,2.547-0.237,3.822-0.247c0.632-0.005,1.266,0.251,1.981,0.407
	c-0.482,1.483-1.467,1.24-2.281,1.309c-3.818,0.322-7.658,0.466-11.448,0.984c-3.227,0.441-6.414,1.232-9.581,2.023
	c-1.168,0.292-2.463,0.668-3.203,2.021c1.402,1.122,3.023,1.132,4.553,1.205c5.443,0.257,10.843-0.272,16.209-1.151
	c1.806-0.296,3.59-0.722,5.392-1.046c0.603-0.108,1.231-0.081,2.047-0.127c-0.503,1.209-1.471,1.123-2.24,1.346
	c-4.766,1.377-9.368,3.161-13.701,5.586c-0.999,0.559-1.88,1.328-3.268,2.325c2.371,0.489,4.045-0.043,5.684-0.433
	c5.545-1.319,10.707-3.647,15.8-6.15c0.792-0.389,1.676-0.593,2.526-0.886c0.432,1.33-0.398,1.599-0.976,1.908
	c-2.813,1.506-5.665,2.94-8.483,4.438c-1.688,0.898-3.378,1.804-4.988,2.831c-0.764,0.488-1.34,1.268-2.007,1.921
	c0.926,1.238,1.936,0.953,2.953,0.768c5.565-1.009,10.697-3.108,15.479-6.1c1.995-1.248,2-1.241,3.435-1.382
	c0.644,0.997-0.176,1.434-0.786,1.882c-1.739,1.277-3.55,2.458-5.254,3.778c-2.398,1.858-4.749,3.78-7.069,5.735
	c-0.701,0.59-1.233,1.381-1.842,2.079c0.08,0.153,0.159,0.307,0.239,0.46c0.65-0.082,1.319-0.092,1.946-0.258
	c3.51-0.927,6.717-2.534,9.7-4.566c2.243-1.528,4.392-3.194,6.587-4.793c0.631-0.459,1.276-0.899,2.294-1.098
	c-0.146,0.457-0.175,1.01-0.458,1.354c-1.522,1.85-3.075,3.677-4.677,5.458c-2.729,3.033-5.43,6.087-7.404,9.688
	c-0.51,0.931-0.818,1.972-1.254,3.051c1.494,0.602,2.485,0.007,3.467-0.444c2.943-1.353,5.426-3.379,7.707-5.621
	c1.76-1.73,3.323-3.663,4.967-5.51c0.617-0.693,1.217-1.402,1.825-2.103c0.157,0.099,0.315,0.197,0.472,0.296
	c-0.263,0.465-0.48,0.965-0.798,1.389c-1.912,2.554-3.964,5.012-5.728,7.664c-0.951,1.431-1.527,3.147-2.057,4.804
	c-0.204,0.639-0.059,1.775,0.377,2.128c0.457,0.37,1.531,0.277,2.201,0.027c2.32-0.865,4.091-2.524,5.43-4.545
	c1.94-2.927,3.721-5.96,5.565-8.951c1.005-1.631,1.94-3.31,3.022-4.889c0.608-0.888,1.351-1.79,2.881-1.609
	c-0.73,1.727-1.415,3.35-2.1,4.973c0.099,0.049,0.197,0.099,0.296,0.148c0.424-0.618,0.841-1.24,1.272-1.852
	c0.735-1.045,1.416-2.139,2.248-3.101c0.356-0.411,1.035-0.541,1.568-0.799c0.211,0.632,0.672,1.304,0.578,1.886
	c-0.163,1.002-0.571,2-1.05,2.908c-6.231,11.813-11.246,24.18-16.657,36.367c-0.275,0.619-0.615,1.209-1.273,1.672
	c3.045-9.527,6.089-19.054,9.134-28.581c-0.094-0.06-0.188-0.12-0.282-0.181c-0.458,0.675-0.92,1.347-1.373,2.025
	c-1.478,2.214-3.165,4.225-5.498,5.593c-1.393,0.817-2.85,1.444-4.522,1.34c-2.216-0.137-3.414-1.428-3.081-3.622
	c0.188-1.239,0.749-2.423,1.168-3.623c0.197-0.563,0.455-1.105,0.883-2.129c-1.645,1.2-2.789,2.195-4.08,2.934
	c-1.58,0.905-3.23,1.753-4.948,2.335c-1.601,0.542-2.547-0.464-2.032-2.055c0.364-1.126,0.883-2.258,1.577-3.21
	c2.116-2.898,4.332-5.724,6.548-8.548c0.768-0.978,1.648-1.868,2.21-3.125c-0.918,0.684-1.836,1.366-2.753,2.051
	c-3.406,2.542-6.983,4.786-11.018,6.199c-0.97,0.34-1.99,0.67-3.002,0.727c-1.773,0.1-2.733-1.224-1.981-2.818
	c0.53-1.124,1.362-2.156,2.238-3.056c1.26-1.294,2.681-2.43,4.371-3.934c-2.488,0.728-4.511,1.392-6.573,1.896
	c-1.226,0.3-2.517,0.503-3.771,0.472c-1.9-0.047-2.277-0.764-1.666-2.654c0.069-0.213,0.134-0.428,0.267-0.854
	c-1.68,0.252-3.224,0.558-4.783,0.69c-1.014,0.086-2.087,0.069-3.069-0.168c-1.951-0.472-2.474-2.147-1.048-3.6
	c0.986-1.005,2.238-1.802,3.484-2.485c1.576-0.864,3.268-1.518,4.909-2.263C73.289,91.211,73.261,91.095,73.232,90.979z
	 M124.331,47.813c-2.554-3.351-4.997-6.506-7.387-9.7c-6.826-9.124-14.455-17.491-23.226-24.79C89.41,9.738,84.96,6.342,79.84,3.99
	c-1.567-0.72-3.305-1.218-5.013-1.438c-1.964-0.253-3.077,1.203-2.33,3.05c0.519,1.284,1.379,2.578,2.426,3.468
	c2.06,1.751,4.331,3.263,6.56,4.806c6.695,4.636,13.564,9.037,20.079,13.913c6.617,4.952,12.343,10.881,16.924,17.829
	c0.499,0.757,0.924,1.564,1.676,2.847c-0.961-0.239-1.41-0.216-1.615-0.429c-0.437-0.454-0.739-1.036-1.11-1.555
	c-7.943-11.11-17.947-19.636-30.773-24.665c-3.001-1.177-6.105-1.831-9.28-2.136c-0.934-0.09-1.918,0.339-2.998,0.554
	c0.44,1.755,1.411,2.723,2.564,3.411c3.422,2.042,6.846,4.095,10.377,5.938c6.163,3.217,12.294,6.478,17.953,10.539
	c2.007,1.44,3.898,3.048,5.795,4.636c0.569,0.476,1.328,0.988,0.877,2.07c-1.22,0.524-1.887-0.484-2.6-1.112
	c-4.71-4.152-9.922-7.556-15.616-10.15c-2.956-1.347-6.078-2.391-9.21-3.27c-1.646-0.462-3.482-0.4-5.219-0.318
	c-0.747,0.035-1.463,0.724-2.193,1.115c0.398,0.642,0.69,1.396,1.22,1.897c0.625,0.591,1.415,1.055,2.206,1.412
	c2.178,0.981,4.352,1.998,6.603,2.784c6.073,2.121,11.725,5.022,16.953,8.762c0.519,0.371,1.111,0.691,1.504,1.171
	c0.259,0.316,0.222,0.875,0.317,1.325c-1.374-0.275-2.342-0.785-3.255-1.381c-5.174-3.377-10.578-6.283-16.662-7.62
	c-1.675-0.368-3.504-0.445-5.199-0.207c-1.935,0.271-2.352,1.666-1.012,3.076c0.975,1.025,2.144,1.952,3.392,2.61
	c2.038,1.075,4.214,1.885,6.325,2.823c5.388,2.394,10.779,4.781,16.148,7.216c0.653,0.296,1.618,0.43,1.587,1.516
	c-1.218,0.28-1.215,0.273-2.366-0.231c-4.027-1.765-8.139-3.317-12.505-3.946c-2.032-0.293-4.136-0.233-6.194-0.108
	c-0.64,0.039-1.495,0.705-1.756,1.301c-0.166,0.379,0.456,1.296,0.942,1.727c0.766,0.678,1.665,1.256,2.595,1.686
	c2.242,1.036,4.516,2.01,6.813,2.92c3.853,1.528,7.746,2.955,11.593,4.499c0.825,0.331,2.158,0.656,1.841,1.839
	c-0.376,1.405-1.763,0.801-2.674,0.633c-2.192-0.404-4.331-1.089-6.522-1.505c-3.359-0.637-6.737-1.184-10.121-1.672
	c-0.68-0.098-1.422,0.24-2.135,0.377c-0.047,0.19-0.095,0.38-0.142,0.57c0.769,0.627,1.456,1.426,2.325,1.844
	c1.644,0.79,3.343,1.594,5.109,1.978c5.679,1.234,11.401,2.275,17.102,3.408c0.521,0.104,1.017,0.334,1.524,0.506
	c-0.046,0.141-0.092,0.282-0.138,0.423c-2.843-0.267-5.687-0.535-8.53-0.802c0.634,0.509,1.32,0.88,2.05,1.112
	c3.995,1.268,8.087,1.861,12.28,1.602c4.505-0.279,6.338-2.568,5.6-6.958c-0.252-1.496-0.504-2.995-0.846-4.472
	C121.718,59.304,121.647,53.495,124.331,47.813z"/>
<path d="M138.667,140.595c0.15,0.026,0.377-0.003,0.439,0.085c1.624,2.314,1.042,7.455-1.121,9.3
	c-0.408,0.348-1.17,0.525-1.684,0.408c-0.282-0.064-0.531-0.901-0.549-1.398c-0.136-3.676-0.423-4.162-3.833-6.062
	c-3.078,4.032-6.155,8.063-9.354,12.254c0.58,2.572,0.033,5.412-0.336,8.253c-0.669,5.157-1.707,10.238-3.352,15.176
	c-0.425,1.275-0.971,2.556-1.711,3.669c-1.326,1.997-2.942,1.761-3.882-0.48c-0.333-0.792-0.548-1.634-0.856-2.572
	c-0.77,2.624-1.435,5.083-2.228,7.5c-0.319,0.971-0.814,1.925-1.414,2.754c-0.958,1.325-2.175,1.145-2.575-0.447
	c-0.364-1.451-0.36-2.995-0.497-4.501c-0.04-0.439-0.006-0.885-0.397-1.401c-0.268,0.87-0.509,1.749-0.81,2.607
	c-0.975,2.784-1.923,5.58-2.986,8.331c-0.398,1.03-1.032,1.983-1.654,2.906c-0.641,0.951-1.458,1.782-2.76,1.512
	c-1.347-0.279-1.591-1.431-1.784-2.551c-0.17-0.99-0.281-1.989-0.466-3.329c-1.001,1.567-1.755,2.861-2.624,4.072
	c-0.754,1.052-1.666,2.13-3.15,1.688c-1.494-0.446-1.622-1.896-1.692-3.156c-0.066-1.18,0.149-2.376,0.24-3.566
	c-0.166-0.151-0.332-0.302-0.497-0.453c-0.242,0.457-0.396,0.997-0.739,1.358c-2.191,2.314-4.379,4.634-6.668,6.849
	c-0.723,0.699-1.708,1.189-2.653,1.583c-1.39,0.578-2.215-0.1-1.916-1.584c0.186-0.921,0.591-1.823,1.032-2.662
	c0.698-1.326,1.51-2.592,2.076-4.114c-0.57,0.467-1.106,0.983-1.716,1.39c-1.256,0.838-2.471,1.811-3.849,2.37
	c-1.675,0.68-2.908-0.272-2.774-2.083c0.099-1.328,0.376-2.731,0.949-3.92c1.902-3.951,3.627-8.051,6.044-11.677
	c7.576-11.369,15.324-22.634,24.263-33.005c2.031-2.357,4.254-4.548,6.55-6.986c-0.218-0.419-0.666-0.995-0.807-1.639
	c-0.122-0.556-0.092-1.338,0.222-1.753c0.506-0.667,1.303-0.415,1.95-0.002c0.335,0.213,0.629,0.491,0.935,0.748
	c2.501,2.104,5.411,3.35,8.566,4.073c1.924,0.441,3.145,0.024,3.925-1.765c0.726-1.665,1.394-3.461,1.551-5.247
	c0.449-5.088,2.885-7.988,8.062-8.785c3.211-0.495,6.333-1.569,9.499-2.364c0.526-0.132,1.076-0.167,1.706,0.051
	c-0.543,0.211-1.073,0.466-1.63,0.625c-3.908,1.11-7.796,2.308-11.743,3.256c-2.629,0.631-3.992,2.228-4.398,4.733
	c-0.383,2.362-0.584,4.752-0.901,7.125c-0.094,0.707-0.245,1.421-0.482,2.092c-1,2.83-3.198,4.147-6.168,3.702
	c-3.539-0.53-6.79-1.754-9.651-4.324c-0.919,1.089-1.793,2.089-2.628,3.12c-9.05,11.189-17.575,22.773-25.881,34.519
	c-3.097,4.381-5.726,9.042-7.761,14.017c-0.532,1.299-1.167,2.627-0.611,4.479c0.93-0.355,1.901-0.497,2.567-1.024
	c1.748-1.383,3.524-2.791,5-4.446c3.668-4.114,7.15-8.393,10.765-12.555c0.997-1.148,1.497-2.87,3.406-3.103
	c0.279-0.034,0.499-0.751,0.701-1.174c0.852-1.792,1.687-3.592,2.593-5.526c0.574,0.209,0.986,0.359,1.248,0.454
	c4.516-2.811,8.969-5.594,13.433-8.359c5.737-3.554,10.958-7.746,15.601-12.645c1.152-1.216,2.225-2.512,3.266-3.826
	c0.306-0.386,0.523-0.957,0.53-1.447c0.028-1.83,0.447-2.249,2.184-1.919c0.546,0.104,1.076,0.287,1.74,0.469
	c5.324-4.295,10.032-9.284,13.76-15.107c4.752-7.42,8.609-15.296,11.499-23.647c1.822-5.266,1.976-10.413,0.009-15.691
	c-2.247-6.033-2.777-12.276-1.622-18.638c0.055-0.303,0.007-0.625,0.007-1.416c-2.032,1.516-3.809,2.842-5.586,4.168
	c-0.128-0.173-0.256-0.346-0.383-0.519c1.895-1.508,3.806-2.997,5.675-4.537c0.518-0.427,1.103-0.932,1.331-1.527
	c2.008-5.241,5.688-8.98,10.388-11.849c5.35-3.266,11.197-5.403,17.067-7.464c5.264-1.848,10.592-3.51,15.87-5.319
	c1.539-0.527,3.001-1.278,4.362-2.352c-0.586,0-1.197-0.11-1.754,0.016c-9.568,2.172-19.115,4.445-28.071,8.586
	c-3.617,1.673-7.076,3.686-10.653,5.45c-2.142,1.056-4.34,2.019-6.581,2.84c-0.929,0.341-2.044,0.314-3.054,0.224
	c-0.391-0.035-0.973-0.684-1.011-1.095c-0.034-0.366,0.488-1.018,0.895-1.155c16.068-5.416,31.442-12.919,48.256-16.09
	c1.173-0.221,2.351-0.471,3.536-0.534c0.458-0.024,1.188,0.332,1.342,0.703c0.148,0.356-0.144,1.167-0.496,1.409
	c-1.242,0.853-2.518,1.751-3.916,2.263c-4.338,1.588-8.763,2.939-13.109,4.507c-5.096,1.839-10.183,3.718-15.197,5.769
	c-2.124,0.869-4.14,2.086-6.052,3.372c-6.671,4.487-9.878,10.878-10.056,18.859c-0.097,4.354,0.41,8.621,1.931,12.72
	c2.191,5.903,1.975,11.728-0.358,17.538c-4.611,11.483-10.398,22.282-18.345,31.84c-0.511,0.614-1.015,1.234-1.509,1.862
	c-0.092,0.117-0.12,0.283-0.182,0.438c2.988,1.534,4.523,4.143,5.362,7.485c1.542-3.751-0.159-6.418-2.334-9.021
	c1.652,0.609,2.802,1.699,3.492,3.265c1.398,3.17,0.258,7.682-2.517,9.756c-0.458,0.342-1.397,0.711-1.656,0.502
	c-0.453-0.367-0.775-1.178-0.76-1.793c0.088-3.622-0.504-5.277-3.302-8.423c-0.836,0.911-2.033,1.51-2.08,2.982
	c-1.113-0.375-1.366,0.538-1.995,1.112c0.697,0.823,1.269,1.499,2.172,2.566C138.8,142.713,138.733,141.654,138.667,140.595z
	 M115.067,182.221c2.571-2.262,7.233-21.524,6.37-26.361c-0.593,0.515-1.117,0.975-1.645,1.429
	c-4.985,4.286-10.39,7.97-16.137,11.146c-2.009,1.11-4.047,2.231-6.23,2.164c-2.152,4.875-4.1,9.678-6.384,14.316
	c-1.417,2.878-1.983,5.872-2.322,8.968c-0.111,1.01-0.086,2.048,0.839,3.004c1.198-0.715,1.925-1.77,2.432-2.906
	c1.167-2.619,2.223-5.288,3.29-7.949c0.248-0.619,0.373-1.278,1.476-0.773c-0.162,3.806-1.061,7.767,0.76,11.628
	c1.055-1.179,1.958-2.377,2.596-3.702c2.54-5.28,4.16-10.867,5.376-16.584c0.183-0.86,0.151-1.852,1.18-2.839
	c0,1.605-0.015,2.823,0.003,4.04c0.048,3.345,0.089,6.69,0.193,10.033c0.014,0.442,0.376,0.873,0.67,1.514
	c1.858-2.795,2.546-5.67,3.137-8.552c0.77-3.751,1.445-7.516,1.411-11.385c-0.009-1.057-0.379-2.377,0.891-3.379
	c0.799,1.013,0.548,2.045,0.439,3.034c-0.369,3.345-0.656,6.69,0.206,10.003C113.908,180.19,114.064,181.409,115.067,182.221z
	 M76.173,199.818c7.599-3.545,14.454-14.8,15.62-23.046c-5.23,6.862-10.371,13.35-14.591,20.501
	C76.782,197.986,76.57,198.82,76.173,199.818z"/>
<path d="M148.051,55.546c-1.367,0.584-2.686,1.386-4.112,1.697c-1.709,0.372-3.345-0.171-4.416-1.697
	c-1.166-1.661-1.559-3.502-0.67-5.403c1.011-2.163,3.842-2.972,6.438-1.938c2.526,1.006,3.994,3.789,3.445,6.53
	C148.508,55.005,148.28,55.276,148.051,55.546z M144.867,52.654c-0.659-1.353-1.234-2.532-1.862-3.821
	c-0.595,0.154-1.239,0.219-1.786,0.484c-1.038,0.501-1.421,1.417-1.328,2.555c0.092,1.125,0.992,1.375,1.816,1.579
	C142.812,53.723,143.89,53.583,144.867,52.654z"/>
<path d="M128.819,106.749c2.711,1.09,5.71,0.882,8.214,3.264c-2.749,0.345-5.03-0.084-7.252-0.709
	C128.861,109.044,128.2,108.264,128.819,106.749z"/>
<path d="M138.894,103.395c-2.64-0.447-5.003-1.768-5.726-3.2C135.375,100.138,137.417,101.279,138.894,103.395z"/>
<path d="M148.051,55.546c0.228-0.271,0.457-0.541,0.685-0.812c1.179-0.902,2.359-1.804,3.537-2.707
	c0.414-0.317,0.825-0.638,1.368-0.824c-0.382,1.252-1.529,1.81-2.386,2.617c-0.92,0.867-1.884,1.687-2.957,2.641
	C148.2,56.096,148.126,55.821,148.051,55.546z"/>
<path d="M141.851,111.897c1.756,0,3.512,0,5.669,0c-1.909,0.811-3.038,0.874-5.697,0.463
	C141.833,112.205,141.842,112.051,141.851,111.897z"/>
<g>
</g>
<g>
</g>
<g>
</g>
<g>
</g>
<g>
</g>
<g>
</g>
</svg>
