<?xml version="1.0" encoding="utf-8"?>
<!-- Generator: Adobe Illustrator 28.1.0, SVG Export Plug-In . SVG Version: 6.00 Build 0)  -->
<svg version="1.1" id="Layer_1" xmlns="http://www.w3.org/2000/svg" xmlns:xlink="http://www.w3.org/1999/xlink" x="0px" y="0px"
	 viewBox="0 0 36.2 84.7" style="enable-background:new 0 0 36.2 84.7;" xml:space="preserve">
<path d="M14.8,25.4c-0.6,1.9-0.8,3.8-1.2,5.7c-0.1,0.6-0.1,1.7-1,1.6C11.7,32.7,12,31.7,12,31c-0.1-2.6,0.4-5,1.3-7.7
	c-1.2,1-2.2,1.8-3.3,2.5c-0.7,0.5-1.5,1.3-2.3,0.5C7,25.5,7.9,24.7,8.3,24c0.8-1.2,2-2,3.1-3c-1.1,0.3-2.2,0.5-3.4,0.8
	c-0.7,0.2-1.4,0.4-2.2,0.5c-0.6,0.1-1.4,0.3-1.7-0.4c-0.4-0.7,0.2-1.3,0.7-1.7c1.5-1.4,3.4-2.1,5.4-2.5c0.7-0.1,1.5-0.1,2.4-0.2
	c-1-0.8-1.9-1.5-2.7-2.3c-0.3-0.3-0.6-0.6-0.8-0.9c-0.2-0.3-0.2-0.6,0-0.9c0.2-0.3,0.6-0.3,0.9-0.2c1,0.3,1.8,0.9,2.6,1.5
	c1,0.8,2,1.6,3.1,2.5c0.4-2,1.4-3.6,2-5.4c0.5-1.4,1.1-2.6,2-3.8c0.3-0.4,0.7-0.8,1.2-0.4c0.6,0.3,0.3,0.9,0.1,1.3
	c-0.7,1.2-1.3,2.3-2,3.5c-0.5,0.9-0.7,1.9-0.9,3.1c0.8-0.9,1.5-1.7,2.1-2.5c0.3-0.4,0.7-0.7,1.1-1c0.4-0.3,0.9-0.8,1.4-0.3
	c0.4,0.4,0.1,0.9-0.2,1.3c-0.3,0.5-0.7,1-1,1.5c-0.6,0.9-1.3,1.7-1.9,2.7c1.5-1.1,3.1-2.2,4.8-2.8c0.6-0.2,1.4-0.8,1.8,0
	c0.4,0.8-0.5,1.1-1,1.5c-2,1.2-3.9,2.4-5.9,3.7c2.3-0.4,4.5-0.1,6.6,0.7c0.6,0.2,1.7,0.4,1.5,1.4c-0.2,0.8-1.2,0.5-1.9,0.4
	c-2.1-0.2-4.1-0.5-6.2-0.6c1.7,1.3,3.4,2.5,4.9,3.9c0.6,0.6,1.3,1.3,1.8,2c0.2,0.4,0.4,0.8,0.1,1.1c-0.4,0.4-0.8,0.2-1.1,0
	c-1.3-0.9-2.5-1.9-3.8-2.8c-0.8-0.6-1.7-1.2-2.7-1.7c0.4,0.9,0.9,1.8,1.3,2.6c0.8,1.7,1.5,3.5,1.8,5.4c0.1,0.6,0.2,1.2-0.5,1.4
	c-0.6,0.2-0.9-0.3-1.2-0.8c-1.3-2.3-2.3-4.8-3.6-7.2c0.1,0.9,0.1,1.8,0.2,2.7c0.5,5.6,0.6,11.3,0.7,16.9c0.1,5.8,0.3,11.7,0.4,17.5
	c0.2,4.7,0.4,9.5,0.6,14.2c0,0.5,0.5,1.3-0.6,1.4c-1.1,0.1-1.2-0.7-1.2-1.4c-0.2-3.6-0.4-7.2-0.5-10.9c-0.2-5.1-0.3-10.2-0.5-15.3
	c-0.1-3.3,0-6.5-0.2-9.8C15.1,35.7,15.3,30.6,14.8,25.4z M15.2,19.2c-4.1-1.3-8.9,0.3-9.5,2.1C8.8,20.5,11.8,19.7,15.2,19.2z
	 M22.5,25.2c-0.8-1-1.7-1.8-2.8-2.4c-1.2-0.6-1.9-2.6-3.8-1.8c0,0-0.2-0.2-0.2,0.1c0,0.5,0.4,0.7,0.7,0.7c1-0.2,1.7,0.4,2.4,0.9
	C20.1,23.5,21.3,24.4,22.5,25.2z"/>
</svg>
