<?xml version="1.0" encoding="utf-8"?>
<!-- Generator: Adobe Illustrator 28.1.0, SVG Export Plug-In . SVG Version: 6.00 Build 0)  -->
<svg version="1.1" id="Layer_1" xmlns="http://www.w3.org/2000/svg" xmlns:xlink="http://www.w3.org/1999/xlink" x="0px" y="0px"
	 viewBox="0 0 36.2 84.7" style="enable-background:new 0 0 36.2 84.7;" xml:space="preserve">
<path d="M19.9,26.7c0.6,1.7,0.7,3.5,1.1,5.2c0.2,0.7,0.1,1.9,1.1,1.8c1.1-0.1,0.8-1.2,0.8-1.9c0.2-2.5-0.3-4.9-1.2-7.5
	c1.2,0.5,1.9,1.4,2.8,1.9c0.6,0.3,1.1,0.7,1.7,1c0.5,0.2,0.9,0.2,1.3-0.2c0.4-0.4,0.3-0.8,0.1-1.3c-0.7-1.4-1.9-2.3-3-3.2
	c-0.3-0.2-0.7-0.3-0.9-0.8c1.3,0,2.4,0.5,3.5,0.8c1,0.2,1.9,0.6,2.9,0.5c0.5,0,1,0,1.2-0.5c0.2-0.5,0.1-1-0.3-1.3
	c-0.4-0.4-0.8-0.8-1.3-1.1c-1.9-1.3-3.9-2-6.2-2c-0.4,0-0.8,0-1.5,0c0.8-0.6,1.4-1.1,2-1.5c0.7-0.5,1.3-1,1.8-1.6
	c0.3-0.4,0.5-0.8,0.1-1.3c-0.3-0.5-0.8-0.3-1.3-0.1c-1.9,0.7-3.4,2-4.9,3.3c-0.9,0.8-1,0.5-1.3-0.4c-0.8-2.2-1.7-4.3-2.7-6.5
	C15.5,9.2,15,8.6,14.5,8c-0.3-0.4-0.8-0.7-1.3-0.4c-0.6,0.3-0.5,0.8-0.2,1.3c0.6,1.2,1.3,2.3,2,3.4c0.6,0.9,0.9,1.9,1,3.1
	c-0.8-0.9-1.4-1.6-2.1-2.3c-0.3-0.3-0.6-0.6-0.9-0.9c-0.5-0.4-1.1-1-1.7-0.5c-0.6,0.5,0,1.2,0.3,1.7c0.8,1.1,1.6,2.2,2.6,3.5
	C13,16.3,12,15.8,11,15.2c-0.8-0.4-1.7-0.8-2.6-1c-0.5-0.1-1-0.1-1.2,0.4c-0.2,0.5,0.1,0.8,0.5,1c1.2,0.7,2.4,1.4,3.6,2.1
	c1.1,0.7,2.3,1.3,3.4,2.1c-1.9-0.3-3.8-0.1-5.7,0.3c-0.8,0.2-1.6,0.4-2.3,0.8C6.3,21.2,5.9,21.5,6,22c0.1,0.6,0.6,0.6,1.1,0.6
	c2,0.1,4-0.4,6.1-0.6c0.4,0,0.8-0.2,1.2,0c0,0.4-0.4,0.5-0.6,0.6c-1.9,1.3-3.7,2.8-5.3,4.4c-0.2,0.2-0.4,0.4-0.6,0.7
	c-0.3,0.5-0.7,1-0.2,1.5c0.5,0.5,1.1,0.2,1.6-0.2c1.6-1.1,3.2-2.3,4.8-3.4c0.4-0.3,0.8-0.7,1.6-0.9c-0.5,0.9-0.9,1.8-1.3,2.6
	c-0.9,1.7-1.5,3.5-1.9,5.4c-0.1,0.6-0.3,1.3,0.5,1.6c0.7,0.3,1.1-0.4,1.5-0.9c1.2-1.8,2-3.8,2.9-5.8c0.2-0.5,0.5-1.1,0.8-1.6
	c-0.2,3-0.5,6-0.6,9c-0.2,4.7-0.3,9.4-0.4,14c-0.1,5.2-0.3,10.4-0.4,15.6c-0.2,4.9-0.4,9.7-0.6,14.6c0,0.5-0.4,1.3,0.7,1.3
	c1,0.1,1.3-0.5,1.3-1.3c0.2-3.9,0.4-7.8,0.6-11.8c0.4-8.7,0.7-17.4,0.8-26.1c0-4.6,0.3-9.1,0.4-13.7C19.7,27.4,19.5,27,19.9,26.7z
	 M29.7,21.8c-3.3-0.8-6.4-1.6-9.8-2.1C23,18.5,28.4,19.7,29.7,21.8z"/>
</svg>
