<?xml version="1.0" encoding="utf-8"?>
<!-- Generator: Adobe Illustrator 28.1.0, SVG Export Plug-In . SVG Version: 6.00 Build 0)  -->
<svg version="1.1" id="Layer_1" xmlns="http://www.w3.org/2000/svg" xmlns:xlink="http://www.w3.org/1999/xlink" x="0px" y="0px"
	 viewBox="0 0 108 59" style="enable-background:new 0 0 108 59;" xml:space="preserve">
<g>
	<g>
		<g>
			<g>
				<path d="M25.1,31.7c-3.6-0.6-7.1-1.1-10.7-0.3c-1.6,0.4-3.2,0.9-4.9,1.2c-1.4,0.2-2.8,0-4.2,0.2c-0.9,0.1-1.6,0.5-2.4,1
					c-1,0.7-1.1,2-0.4,2.9c2,3,5.6,0.6,8.3,0.5c1-0.1,3.5,0.3,3.2,1.8c0,0-0.3,0.7-0.4,0.6c0,0.1,0.5-0.3,0.1,0
					c-0.1,0.1-0.2,0.1-0.3,0.2c-0.3,0.2-0.7,0.4-1,0.6c-0.6,0.5-0.8,1.1-1.1,1.8c-0.3,0.6-0.6,1.1-1,1.6c-0.8,1-1.8,1.7-2.7,2.6
					C6.8,47.2,6,48,5.5,49.2c-0.5,1.1-0.7,2.7,0.4,3.4c1,0.8,2.7,0.6,3.8,0.2c1.1-0.3,2-0.9,3-1.4c1.3-0.7,2.5-1.6,3.8-2.2
					c1.7-0.7,3.5-0.8,5.2-1.2c2.9-0.7,5.3-2.8,7.4-4.9c-0.3,0.3-0.8,0.3-1,0.6c-0.8,0.8-1.6,1.6-2.5,2.3c-0.2,0.2-0.4,0.3-0.6,0.5
					c-0.2,0.1-0.3,0.2-0.5,0.3c0.4-0.2-0.3,0.1-0.3,0.1c-0.6,0.2-1.1,0.4-1.7,0.6c-1.2,0.3-2.3,0.3-3.5,0.6
					c-0.9,0.2-1.8,0.6-2.6,1.1C14.9,50,13.5,51,12,51.7c-1.4,0.7-3.9,1.4-5.3,0.2c-1.4-1.3-0.3-3.6,0.7-4.7c1.1-1.4,2.6-2.3,3.8-3.6
					c0.6-0.7,1-1.4,1.4-2.2c0.2-0.4,0.4-0.9,0.7-1.2c0,0,0-0.1,0.1-0.1c0.2-0.2,0.2-0.2,0-0.1c-0.1,0.1-0.2,0.1,0,0
					c0.1-0.1,0.3-0.2,0.4-0.2c0.5-0.3,1.2-0.6,1.3-1.2c0.1-1-1.3-1.6-2.1-1.7c-2.5-0.5-4.9,1.4-7.4,0.9c-1.8-0.4-3.6-3-1.6-4.4
					c-0.1,0-0.1,0.1-0.1,0.1c-0.9,0.5-0.1,0.2,0.3,0.1c0.3-0.1,0.6-0.1,1-0.1c0.7,0,1.5,0,2.2,0c1.8-0.1,3.6-0.6,5.3-1.1
					c1.8-0.5,3.6-0.8,5.4-0.7c2,0.1,4.1,0.4,6.1,0.8C24.4,32.3,24.8,31.6,25.1,31.7L25.1,31.7z"/>
			</g>
		</g>
		<g>
			<g>
				<path d="M20.3,44.3c-2.6,1.9-5.5,3.5-8.5,4.7c-0.4,0.2-0.7,0.4-1,0.6c3.7-1.5,7.3-3.5,10.5-5.9C21,44,20.6,44.1,20.3,44.3
					L20.3,44.3z"/>
			</g>
		</g>
		<g>
			<g>
				<path d="M18.8,41.6c-2.1,1.5-4.4,2.5-6.9,3.1c-0.4,0.1-0.7,0.5-1,0.6c3.2-0.8,6.3-2.4,8.9-4.3C19.6,41.2,19.2,41.4,18.8,41.6
					L18.8,41.6z"/>
			</g>
		</g>
		<g>
			<g>
				<path d="M17.7,35.2c-2.9-1-6-1-8.9,0.1c-0.4,0.1-0.7,0.5-1,0.6c2.8-1.1,6-1.1,8.9-0.1c0.1,0,0.4-0.3,0.5-0.3
					C17.2,35.4,17.6,35.1,17.7,35.2L17.7,35.2z"/>
			</g>
		</g>
		<g>
			<g>
				<g>
					<path d="M20.7,32.7c2.4,0.7,4.8-0.9,6.6-2.2c2.7-1.9,5.2-4.1,7.6-6.4c4.5-4.4,8.5-9.5,13.9-12.9c5.2-3.3,11.7-4.8,17.8-5.2
						c6.5-0.5,13,0.4,19.3,1.9c3.7,0.9,7.3,2,10.9,3.2c1.6,0.6,3.4,1.1,4.9,1.8c0.9,0.4,3.6,2.2,2,3.2c0.3-0.2,0.7-0.4,1-0.6
						c-0.7,0.3-1.4,0.4-2.1,0.7c-0.4,0.2-0.9,0.5-1.3,0.7c-1.3,0.8-2.1,2-2.5,3.4c0.1-0.3,1-0.3,1-0.6c0.2-0.7,0.4-1.3,0.8-1.9
						c0.2-0.3,0.4-0.5,0.7-0.8c0.1-0.1,0.2-0.2,0.3-0.3c0.2-0.2,0.2-0.2,0,0c0.1,0,0.2-0.1,0.3-0.1c1-0.3,1.8-0.5,2.7-1.1
						c1.4-1-0.9-2.6-1.7-3.1c-1.5-0.8-3.2-1.3-4.8-1.9c-7.1-2.5-14.5-4.5-22.1-5.2c-6.8-0.6-13.8-0.1-20.3,2.3
						c-5.9,2.1-10.9,5.6-15.3,10c-2.9,2.9-5.6,6-8.6,8.7c-1.5,1.4-3.1,2.7-4.8,4c-0.9,0.7-1.6,1.2-2.5,1.5c-1,0.3-1.9,0.4-2.9,0.1
						C21.4,32,20.9,32.8,20.7,32.7L20.7,32.7z"/>
				</g>
			</g>
			<g>
				<g>
					<path d="M102.1,17.2c-0.4,1.5-1.1,2.9-2.2,4.1c-0.2,0.2-0.5,0.5-0.7,0.7c-0.2,0.2-0.4,0.3-0.6,0.4c1.4-1,1-0.6,0.5-0.3
						c-0.7,0.3-1.5,0.6-2.3,0.9c-1.1,0.5-2.4,1.2-3.3,2.1c-1.2,1.2-1.9,2.8-2.9,4.1c-1.9,2.7-4.2,5.1-6.7,7.3
						c-1.3,1.1-2.7,2.1-4,3.1c-1.5,1.1-3.1,2.2-4.8,3c-3.4,1.6-7.3,2-11,2.7c-3.9,0.7-7.8,1.5-11.7,2.1c-1.7,0.3-3.4,0.3-5.2,0
						c-1.5-0.3-3-0.8-4.5-1.4c-2.8-1.1-5.7-2.5-8.7-3c-1.7-0.3-3.3-0.1-5,0.3c-1.7,0.4-3.7,0.9-5.2-0.4c-1.4-1.2-1.9-3.4-2.3-5.2
						c-0.3-1-0.5-2-0.7-3c-0.1-0.8-0.4-2.1,0.4-2.6c-0.5,0.3-1,0.6-1.5,0.9c0.5-0.2,1.1-0.2,1.3,0.3c0,0,1.6-0.9,1.5-0.9
						c-0.3-0.5-0.8-0.6-1.3-0.3c-0.5,0.2-1.2,0.6-1.7,1c-0.7,0.5-0.5,1.5-0.4,2.3c0.2,1,0.4,2,0.7,3c0.4,1.7,0.9,4,2.2,5.3
						c1.3,1.3,3.2,1,4.9,0.6c1.7-0.4,3.3-0.7,5-0.4c1.7,0.2,3.3,0.7,4.8,1.3c3.2,1.2,6.3,2.9,9.8,3.3c2,0.3,3.9-0.1,5.9-0.4
						c2.2-0.4,4.5-0.8,6.7-1.2c2.1-0.4,4.3-0.8,6.4-1.2c2-0.4,4-0.7,5.9-1.3c3.3-1.1,6.3-3.2,9.2-5.1c3.1-2.1,6-4.4,8.5-7.1
						c1.4-1.5,2.7-3.2,3.7-4.9c0.5-0.9,1.1-1.8,1.7-2.6c0.4-0.4,0.8-0.7,1.2-1.1c-0.3,0.2-0.6,0.3-0.9,0.5c0.2-0.1,0.4-0.2,0.6-0.3
						c0.2-0.1,0.4-0.2,0.7-0.3c1.5-0.6,2.9-1.3,4.2-2.3c1.6-1.2,2.6-2.9,3-4.8c0,0.1-0.7,0.4-0.8,0.4
						C102.8,16.8,102.2,17,102.1,17.2L102.1,17.2z"/>
				</g>
			</g>
			<g>
				<path d="M93.6,13.6c0.1,0.3,0.3,0,0.1-0.2c-0.1-0.3-0.3-0.3-0.4-0.3c-0.1,0.8,1.1,2.5,1.4,2.1c0.4-0.4-0.4-2.3-1-2.6
					c-0.7-0.3-0.7,1-0.1,2.1"/>
				<g>
					<path d="M93.1,13.8c0,0.1,0.1,0.1,0.1,0.1c0,0,0.1,0,0.1,0c0.1-0.1,0.2-0.1,0.3-0.2c0.2-0.1,0.4-0.2,0.6-0.4
						c0.1,0,0.1-0.1,0.1-0.1c0-0.2-0.2-0.6-0.5-0.5c0,0-0.1,0.1-0.2,0.1c-0.1,0.1-0.2,0.1-0.4,0.2c-0.1,0.1-0.2,0.1-0.4,0.2
						c0,0-0.1,0.1-0.1,0.1c0,0.3,0.1,0.6,0.2,0.8c0.1,0.3,0.3,0.6,0.5,0.8c0.1,0.2,0.3,0.4,0.5,0.4c0,0,0.1,0,0.1,0
						c0.1,0,0.3-0.2,0.4-0.2c0.2-0.1,0.3-0.2,0.5-0.3c0.1,0,0.1-0.1,0.2-0.1c0,0,0.1-0.1,0.1-0.1c0.1-0.2,0-0.5,0-0.7
						c-0.1-0.3-0.2-0.6-0.4-0.9c-0.1-0.3-0.3-0.6-0.5-0.8c-0.1-0.1-0.2-0.2-0.3-0.2c0,0-0.1,0-0.1,0c0,0-0.1,0-0.1,0.1
						c-0.2,0.1-0.3,0.2-0.5,0.3c-0.2,0.1-0.4,0.2-0.6,0.3c0,0-0.1,0.1-0.1,0.2c-0.1,0.2-0.1,0.3-0.1,0.5c0,0.5,0.2,1,0.4,1.4
						c0,0,1-0.6,1-0.6c-0.2-0.4-0.4-0.8-0.4-1.3c0-0.2,0-0.7,0.2-0.8c-0.3,0.2-0.6,0.4-0.9,0.5c0,0,0,0,0,0c0,0,0,0-0.1,0
						c0.2-0.1,0.4,0,0.5,0.2c0.2,0.2,0.3,0.4,0.4,0.6c0.3,0.4,0.5,1,0.5,1.5c0,0.1,0,0.4-0.1,0.5c0.3-0.1,0.5-0.3,0.8-0.4
						c0,0,0,0,0,0c0.1,0,0.2-0.1,0.3-0.1c-0.1,0.1-0.3,0-0.4-0.1c-0.2-0.2-0.3-0.3-0.5-0.5c-0.3-0.4-0.6-0.9-0.5-1.4
						c-0.3,0.2-0.7,0.4-1,0.6c0.1,0,0.3,0.1,0.3,0.2c0.1,0.1,0.2,0.3,0.1,0.5c0.3-0.2,0.7-0.4,1-0.6c-0.1,0-0.1-0.1-0.1-0.1
						C94.1,13.3,93.1,13.8,93.1,13.8L93.1,13.8z"/>
				</g>
			</g>
			<g>
				<g>
					<path d="M86,10.7c-0.6,0.7-1.3,1.4-1.2,2.4c0,0.9,0.7,1.3,1.4,1.7c0.8,0.4,1.4,0.7,1.6,1.6c0.2,0.9-0.1,1.8-0.2,2.7
						c-0.3,1.7,0.2,3.5,1.4,4.7c1.1,1.1,2.9,1.5,4.3,0.7c0.3-0.2,0.7-0.4,1-0.6c-1.5,0.8-3.3,0.3-4.4-0.9c-1.2-1.3-1.5-3.1-1.2-4.8
						c0.2-0.9,0.4-1.8,0.1-2.6c-0.3-0.8-0.9-1.1-1.6-1.5c-0.7-0.3-1.3-0.8-1.3-1.6c0-1,0.6-1.7,1.2-2.4C86.7,10.4,86.2,10.4,86,10.7
						L86,10.7z"/>
				</g>
			</g>
			<g>
				<g>
					<path d="M80.9,10.5c-1.9,2.7-3.4,5.9-2.9,9.4c0.4,2.9,2.6,5.7,5.7,5.9c0.3,0,0.7-0.6,1-0.6c-3.1-0.2-5.3-3-5.7-5.9
						c-0.5-3.4,1-6.6,2.9-9.4C81.7,10.2,81.1,10.2,80.9,10.5L80.9,10.5z"/>
				</g>
			</g>
			<g>
				<g>
					<path d="M77.8,8.7c-1.9,3.8-2.7,8.3-1.3,12.4c1.2,3.4,3.9,6.4,7.4,7.4c0.3,0.1,0.8-0.7,1-0.6c-3.6-0.9-6.2-4-7.4-7.4
						c-1.4-4.1-0.6-8.6,1.3-12.4C78.7,8.4,78,8.4,77.8,8.7L77.8,8.7z"/>
				</g>
			</g>
			<g>
				<g>
					<path d="M47.3,15.3c-0.5,0.9-0.6,2-0.3,3c0.2,0.5,0.4,1,0.8,1.4c0.4,0.5,1,0.6,1.5,0.6c0.1,0,0.2-0.1,0.3-0.1s0.2-0.2,0.3-0.2
						c-0.6-0.1-1.1-0.2-1.5-0.6c-0.4-0.4-0.6-0.9-0.8-1.4c-0.3-1-0.2-2.1,0.3-3c0,0.1-0.2,0.1-0.3,0.1
						C47.4,15.2,47.3,15.3,47.3,15.3L47.3,15.3z"/>
				</g>
			</g>
			<g>
				<g>
					<path d="M49.3,17.8c-0.3,1.1-0.3,2.3,0.1,3.3c0.4,0.8,1.1,1.5,2,1.7c0.1,0,0.2-0.1,0.3-0.1c0,0,0.2-0.2,0.3-0.2
						c-0.9-0.2-1.6-0.9-2-1.7c-0.5-1-0.4-2.2-0.1-3.3c0,0-0.2,0.1-0.3,0.1C49.5,17.7,49.3,17.8,49.3,17.8L49.3,17.8z"/>
				</g>
			</g>
			<g>
				<g>
					<path d="M51.9,22.6c-0.6,0.8-0.9,1.9-0.5,2.9c0.2,0.5,0.5,0.9,0.9,1.2c0.5,0.4,0.9,0.7,1.4,1c0.1,0.1,0.4-0.3,0.5-0.3
						c-0.5-0.3-0.9-0.7-1.4-1c-0.4-0.3-0.8-0.7-1-1.2c-0.4-1,0-2.1,0.5-2.9C52.3,22.4,52,22.4,51.9,22.6L51.9,22.6z"/>
				</g>
			</g>
			<g>
				<g>
					<path d="M54.3,25.3c-0.3,1-0.5,2.1-0.1,3.2c0.2,0.5,0.6,0.9,1,1.3c0.5,0.4,0.9,0.8,1.4,1.2c0.1,0,0.5-0.3,0.5-0.3
						c-0.5-0.4-0.9-0.7-1.4-1.1c-0.4-0.4-0.8-0.8-1-1.3c-0.4-1-0.2-2.2,0.1-3.2c0,0-0.2,0.1-0.3,0.1C54.5,25.2,54.3,25.2,54.3,25.3
						L54.3,25.3z"/>
				</g>
			</g>
			<g>
				<g>
					<path d="M52.3,27.3c-1,1.9,0.2,4.4,2.3,4.9c0,0,0.2-0.1,0.3-0.1c0,0,0.2-0.2,0.3-0.2c-2.1-0.5-3.2-3-2.3-4.9
						c0,0.1-0.2,0.1-0.3,0.1C52.5,27.2,52.3,27.3,52.3,27.3L52.3,27.3z"/>
				</g>
			</g>
			<g>
				<g>
					<path d="M54.9,30.1c-0.3,1-0.1,2.1,0.4,3c0.5,0.8,1.6,1.9,2.6,1.3c0.1-0.1,0.2-0.1,0.4-0.2c0,0,0.2-0.1,0.1-0.1
						c-0.5,0.3-1.2,0-1.6-0.3c-0.4-0.3-0.8-0.7-1-1.1c-0.5-0.9-0.7-1.9-0.4-2.9c0,0-0.2,0.1-0.3,0.1C55.1,30,55,30.1,54.9,30.1
						L54.9,30.1z"/>
				</g>
			</g>
			<g>
				<g>
					<path d="M53.1,32c0.1,0.9,0.2,1.8,0.7,2.6c0.4,0.6,1.2,1.1,1.9,0.9c0.2-0.1,0.3-0.2,0.5-0.3c-0.8,0.2-1.5-0.3-1.9-0.9
						c-0.5-0.7-0.6-1.7-0.7-2.6c0,0-0.2,0.1-0.3,0.1C53.3,31.8,53.1,31.9,53.1,32L53.1,32z"/>
				</g>
			</g>
			<g>
				<g>
					<path d="M56.3,34.6c-0.5,0.8-0.6,1.9-0.1,2.8c0.4,0.8,1.3,1.4,2.3,1.5c0.1,0,0.2-0.1,0.3-0.1c0.1,0,0.2-0.2,0.3-0.2
						c-0.9-0.1-1.8-0.6-2.3-1.5c-0.5-0.9-0.4-2,0.1-2.8c0,0.1-0.2,0.1-0.3,0.1C56.5,34.4,56.3,34.5,56.3,34.6L56.3,34.6z"/>
				</g>
			</g>
			<g>
				<g>
					<path d="M50.2,27.8c-0.4,1.8,0.5,3.8,2,4.7c0,0,0.2-0.1,0.3-0.1c0,0,0.2-0.2,0.3-0.2c-1.6-0.9-2.4-2.9-2-4.7
						c0,0-0.2,0.1-0.3,0.1C50.4,27.6,50.2,27.7,50.2,27.8L50.2,27.8z"/>
				</g>
			</g>
			<g>
				<g>
					<path d="M49.3,23.4c-0.5,2.1,0.9,4,2.5,5.1c0.1,0.1,0.5-0.3,0.5-0.3c-1.6-1.1-3-3-2.5-5.1c0,0-0.2,0.1-0.3,0.1
						C49.5,23.3,49.3,23.3,49.3,23.4L49.3,23.4z"/>
				</g>
			</g>
			<g>
				<g>
					<path d="M46.7,19.5c-0.6,1.9,0.3,4.1,2.2,4.9c0,0,0.2-0.1,0.3-0.1c0,0,0.2-0.2,0.3-0.2c-1.8-0.8-2.8-3-2.2-4.9
						c0,0-0.2,0.1-0.3,0.1C46.9,19.4,46.7,19.5,46.7,19.5L46.7,19.5z"/>
				</g>
			</g>
			<g>
				<g>
					<path d="M47.6,23.7c-0.3,1-0.5,2.1,0.1,3c0.5,0.9,1.5,1.3,2.3,1.8c0,0,0.2-0.1,0.3-0.1c0,0,0.2-0.2,0.3-0.2
						c-0.9-0.4-1.8-0.9-2.3-1.8c-0.6-0.9-0.4-2-0.1-3c0,0-0.2,0.1-0.3,0.1C47.8,23.6,47.6,23.7,47.6,23.7L47.6,23.7z"/>
				</g>
			</g>
			<g>
				<g>
					<path d="M49.1,31.6c0.2,0.1,0.4,0.2,0.5,0.3c0,0,0.1,0,0.1,0c0.1,0,0.1-0.1,0.2-0.1c0.1,0,0.1-0.1,0.2-0.1c0,0,0.1,0,0.1,0
						c-0.2-0.1-0.4-0.2-0.5-0.3c0,0-0.1,0-0.1,0c-0.1,0-0.1,0.1-0.2,0.1C49.3,31.5,49.2,31.5,49.1,31.6
						C49.1,31.5,49.1,31.6,49.1,31.6L49.1,31.6z"/>
				</g>
			</g>
			<g>
				<g>
					<path d="M51.1,32.1c-0.9,0.9-0.3,2.2,0.2,3.1c0.3,0.5,0.6,1,1,1.5c0.4,0.4,0.8,0.8,1.3,0.9c0,0,0.2-0.1,0.3-0.1
						c0,0,0.2-0.2,0.3-0.2c-0.5-0.1-1-0.5-1.3-0.9c-0.4-0.5-0.8-1-1.1-1.5c-0.5-0.9-1.1-2.2-0.2-3.1C51.5,31.9,51.3,32,51.1,32.1
						L51.1,32.1z"/>
				</g>
			</g>
			<g>
				<g>
					<path d="M47.7,27.1c-0.1,1.3,0.1,2.6,0.9,3.7c0.6,0.9,1.6,1.7,2.7,1.9c0.1,0,0.2-0.1,0.3-0.1c0,0,0.2-0.2,0.3-0.2
						c-1.1-0.2-2.1-0.9-2.7-1.9c-0.7-1.1-1-2.4-0.9-3.7c0,0-0.2,0.1-0.3,0.1C47.9,26.9,47.7,27,47.7,27.1L47.7,27.1z"/>
				</g>
			</g>
			<g>
				<g>
					<path d="M48.2,31.1c-0.7,2.4,0.9,5.1,3.5,5.4c0.1,0,0.2-0.1,0.3-0.1c0.1,0,0.2-0.2,0.3-0.2c-2.5-0.3-4.2-3-3.5-5.4
						c0,0-0.2,0.1-0.3,0.1C48.4,31,48.2,31.1,48.2,31.1L48.2,31.1z"/>
				</g>
			</g>
			<g>
				<g>
					<path d="M44.9,24.1c-0.3,1.2-0.2,2.5,0.3,3.7c0.2,0.6,0.5,1.1,0.9,1.6c0.4,0.5,0.8,1,1.4,1.1c0.1,0,0.4-0.3,0.5-0.3
						c-0.6-0.1-1.1-0.6-1.4-1.1c-0.4-0.5-0.7-1.1-0.9-1.7c-0.4-1.2-0.5-2.5-0.3-3.7C45.4,23.9,44.9,23.9,44.9,24.1L44.9,24.1z"/>
				</g>
			</g>
			<g>
				<g>
					<path d="M52.5,17.8c-0.6,1.1-1,2.5-0.8,3.7c0.1,0.6,0.5,1.1,0.9,1.6c0.4,0.5,0.9,0.9,1.4,1.1c0.1,0,0.4-0.3,0.5-0.3
						c-0.6-0.2-1-0.6-1.4-1.1c-0.4-0.5-0.8-1-0.9-1.6C52,20,52.4,18.6,53,17.5C52.9,17.7,52.5,17.7,52.5,17.8L52.5,17.8z"/>
				</g>
			</g>
			<g>
				<g>
					<path d="M56.8,24.5c-0.1,1.2-0.1,2.5,0.4,3.5c0.4,0.9,1.3,1.7,2.3,1.7c0.1,0,0.2-0.1,0.3-0.1c0.1,0,0.2-0.2,0.3-0.2
						c-1,0-1.9-0.8-2.3-1.7c-0.5-1.1-0.5-2.4-0.4-3.5c0,0-0.2,0.1-0.3,0.1C57,24.3,56.8,24.4,56.8,24.5L56.8,24.5z"/>
				</g>
			</g>
			<g>
				<g>
					<path d="M58.9,30.4c-0.5,1.2-0.5,2.5,0.1,3.7c0.5,1,1.5,1.7,2.7,1.8c0.2,0,0.3-0.3,0.5-0.3c-1.1,0-2.1-0.8-2.7-1.8
						c-0.6-1.1-0.6-2.5-0.1-3.7c0,0-0.2,0.1-0.3,0.1C59.1,30.3,59,30.3,58.9,30.4L58.9,30.4z"/>
				</g>
			</g>
			<g>
				<g>
					<path d="M59.5,23.8c-0.6,1.2-0.4,2.6,0.1,3.7c0.3,0.6,0.7,1.1,1.1,1.5c0.2,0.2,0.4,0.4,0.7,0.6c0.2,0.2,0.5,0.5,0.9,0.4
						c0.2,0,0.3-0.3,0.5-0.3c-0.3,0.1-0.6-0.2-0.8-0.4c-0.2-0.2-0.5-0.4-0.7-0.6c-0.5-0.4-0.8-1-1.1-1.5c-0.6-1.1-0.7-2.5-0.1-3.7
						C60,23.7,59.6,23.7,59.5,23.8L59.5,23.8z"/>
				</g>
			</g>
			<g>
				<g>
					<path d="M57.3,15.9c-0.4,0.8-0.3,1.8,0.2,2.6c0.5,0.8,1.2,1.4,2,1.9c0,0,0.2-0.1,0.3-0.1c0,0,0.2-0.2,0.3-0.2
						c-0.8-0.4-1.5-1-2-1.9c-0.5-0.8-0.6-1.8-0.2-2.6c0,0.1-0.2,0.1-0.3,0.1C57.5,15.8,57.3,15.9,57.3,15.9L57.3,15.9z"/>
				</g>
			</g>
			<g>
				<g>
					<path d="M55.3,16.7c0,1,0,2.1,0.7,3c0.2,0.3,0.6,0.6,1,0.8c0.2,0.1,0.4,0.1,0.6,0c0.2-0.1,0.4-0.2,0.6-0.3
						c-0.1,0.1-0.4,0.2-0.5,0.3c0,0-0.1,0-0.1,0.1c0.2-0.1,0.3-0.2,0.5-0.3c-0.3,0.1-0.7-0.1-1-0.3c-0.3-0.2-0.5-0.5-0.7-0.9
						c-0.4-0.8-0.4-1.8-0.4-2.6c0,0-0.2,0.1-0.3,0.1C55.5,16.5,55.3,16.6,55.3,16.7L55.3,16.7z"/>
				</g>
			</g>
			<g>
				<g>
					<path d="M57.2,20.4c-0.2,0.1-0.5,0.2-0.7,0.4c-0.2,0.1-0.3,0.3-0.5,0.4c-0.3,0.5-0.3,1.1-0.1,1.6c0.3,0.9,1.3,2.1,2.4,1.8
						c0.2-0.1,0.3-0.2,0.5-0.3c-0.9,0.2-1.7-0.5-2.1-1.3c-0.2-0.4-0.4-1-0.4-1.5c0-0.2,0.1-0.4,0.2-0.6c0.1-0.1,0.1-0.2,0.2-0.3
						c0,0,0.1-0.1,0.1-0.1c0.2-0.2-0.4,0.2-0.2,0.1C56.9,20.6,57,20.4,57.2,20.4L57.2,20.4z"/>
				</g>
			</g>
			<g>
				<g>
					<path d="M60.9,22.7c-0.1,1,0.1,2,0.7,2.9c0.3,0.4,0.6,0.8,0.9,1.1c0.4,0.3,0.9,0.7,1.4,0.7c0.1,0,0.2-0.1,0.3-0.1
						c0.1,0,0.2-0.2,0.3-0.2c-0.5,0-1-0.4-1.4-0.7c-0.4-0.3-0.7-0.7-0.9-1.1c-0.5-0.9-0.8-1.9-0.7-2.9c0,0-0.2,0.1-0.3,0.1
						C61.1,22.5,60.9,22.6,60.9,22.7L60.9,22.7z"/>
				</g>
			</g>
			<g>
				<g>
					<path d="M59.8,18.9c-0.3,2.1,0.8,4.3,2.8,5.3c0,0,0.2-0.1,0.3-0.1c0,0,0.2-0.2,0.3-0.2c-2-0.9-3.1-3.1-2.8-5.3
						c0,0-0.2,0.1-0.3,0.1C60,18.7,59.8,18.8,59.8,18.9L59.8,18.9z"/>
				</g>
			</g>
			<g>
				<g>
					<path d="M59.2,14.1c-0.2,1.2-0.4,2.5,0.1,3.6c0.4,1,1.3,1.7,2.4,2c0,0,0.2-0.1,0.3-0.1c0,0,0.2-0.2,0.3-0.2c-1-0.4-2-1-2.4-2
						c-0.5-1.2-0.3-2.4-0.1-3.6c0,0-0.2,0.1-0.3,0.1C59.4,13.9,59.2,14,59.2,14.1L59.2,14.1z"/>
				</g>
			</g>
			<g>
				<g>
					<path d="M59.7,10.4c-0.4,1-0.4,2.1,0.1,3.1c0.2,0.5,0.5,0.9,0.9,1.3c0.1,0.1,0.3,0.3,0.5,0.2c0.1-0.1,0.2-0.1,0.4-0.2
						c0.1,0,0.2-0.1,0.2-0.2c0,0-0.2,0.1-0.3,0.1c0,0-0.2,0.1-0.3,0.2c0,0,0,0.1,0,0.1c0.2-0.1,0.3-0.2,0.5-0.3
						c-0.2,0.1-0.4-0.1-0.5-0.2c-0.2-0.2-0.3-0.3-0.4-0.5c-0.3-0.4-0.5-0.8-0.6-1.2c-0.3-0.9-0.3-1.8,0.1-2.6c0,0-0.2,0.1-0.3,0.1
						C59.9,10.3,59.7,10.4,59.7,10.4L59.7,10.4z"/>
				</g>
			</g>
			<g>
				<g>
					<path d="M63.8,27.5c0.2,0.9,0.5,1.8,1,2.5c0.5,0.6,1.2,1.2,2,1.2c0.1,0,0.2-0.1,0.3-0.1c0.1,0,0.2-0.2,0.3-0.2
						c-0.8,0-1.5-0.5-2-1.2c-0.5-0.7-0.8-1.6-1-2.5C64.4,27.3,63.8,27.5,63.8,27.5L63.8,27.5z"/>
				</g>
			</g>
			<g>
				<g>
					<path d="M61.8,30.2c-0.1,1,0,2,0.5,2.8c0.4,0.7,1.2,1.3,2.1,1.3c0.1,0,0.2-0.1,0.3-0.1c0.1,0,0.2-0.1,0.3-0.2
						c-0.9,0.1-1.7-0.6-2.1-1.3c-0.5-0.9-0.5-1.9-0.5-2.8c0,0-0.2,0.1-0.3,0.1C62,30.1,61.8,30.1,61.8,30.2L61.8,30.2z"/>
				</g>
			</g>
			<g>
				<g>
					<path d="M62.4,33.7c-0.7,0.7-0.1,2,0.3,2.7c0.4,0.8,1.1,1.7,2.1,1.4c0.2-0.1,0.3-0.2,0.5-0.3c-1,0.3-1.7-0.6-2.1-1.4
						c-0.4-0.7-1-2-0.3-2.7C62.8,33.6,62.6,33.6,62.4,33.7L62.4,33.7z"/>
				</g>
			</g>
			<g>
				<g>
					<path d="M58.9,35.7c-0.4,2.3,1,4.6,3.2,5.2c0,0,0.2-0.1,0.3-0.1c0,0,0.2-0.2,0.3-0.2c-2.2-0.6-3.7-2.9-3.2-5.2
						c0,0-0.2,0.1-0.3,0.1C59.1,35.6,58.9,35.7,58.9,35.7L58.9,35.7z"/>
				</g>
			</g>
			<g>
				<g>
					<path d="M46.8,32.7c-0.2,1-0.2,2.1,0.2,3c0.3,0.8,0.9,1.5,1.7,1.8c0,0,0.2-0.1,0.3-0.1c0,0,0.2-0.2,0.3-0.2
						c-0.8-0.3-1.4-1-1.7-1.8c-0.4-1-0.4-2-0.2-3c0,0-0.2,0.1-0.3,0.1C47,32.6,46.8,32.7,46.8,32.7L46.8,32.7z"/>
				</g>
			</g>
			<g>
				<g>
					<path d="M49.2,35.4C49,36,49,36.5,49.2,37.1c0.1,0.6,0.3,1.2,0.5,1.7c0.4,1,1.3,1.9,2.4,2c0.1,0,0.2-0.1,0.3-0.1
						s0.2-0.2,0.3-0.2c-1.1-0.1-2-1-2.4-2c-0.2-0.5-0.4-1.1-0.5-1.7c-0.1-0.6-0.2-1.2,0.1-1.7c0,0-0.2,0.1-0.3,0.1
						C49.4,35.3,49.3,35.4,49.2,35.4L49.2,35.4z"/>
				</g>
			</g>
			<g>
				<g>
					<path d="M43.2,25c-0.8,1.9,0.1,4.2,1.9,5.1c0,0,0.2-0.1,0.3-0.1c0,0,0.2-0.2,0.3-0.2c-1.9-0.9-2.7-3.2-1.9-5.1
						c0,0-0.2,0.1-0.3,0.1C43.4,24.9,43.2,24.9,43.2,25L43.2,25z"/>
				</g>
			</g>
			<g>
				<g>
					<path d="M43.1,29.7c-0.4,1.8,0.5,3.8,2,4.7c0,0,0.2-0.1,0.3-0.1c0,0,0.2-0.2,0.3-0.2c-1.6-0.9-2.4-2.9-2-4.7
						c0,0-0.2,0.1-0.3,0.1C43.3,29.6,43.1,29.6,43.1,29.7L43.1,29.7z"/>
				</g>
			</g>
			<g>
				<g>
					<path d="M39.6,21.4c-0.6,1.9,0.3,4.1,2.2,4.9c0,0,0.2-0.1,0.3-0.1c0,0,0.2-0.2,0.3-0.2c-1.8-0.8-2.8-3-2.2-4.9
						c0,0-0.2,0.1-0.3,0.1C39.8,21.3,39.6,21.4,39.6,21.4L39.6,21.4z"/>
				</g>
			</g>
			<g>
				<g>
					<path d="M40.5,25.7c-0.3,1-0.5,2.1,0.1,3c0.5,0.9,1.5,1.3,2.3,1.8c0,0,0.2-0.1,0.3-0.1c0,0,0.2-0.2,0.3-0.2
						c-0.9-0.4-1.8-0.9-2.3-1.8c-0.6-0.9-0.4-2-0.1-3c0,0-0.2,0.1-0.3,0.1C40.7,25.5,40.5,25.6,40.5,25.7L40.5,25.7z"/>
				</g>
			</g>
			<g>
				<g>
					<path d="M42,33.5c0.2,0.1,0.4,0.2,0.5,0.3c0,0,0.1,0,0.1,0c0.1,0,0.1-0.1,0.2-0.1c0.1,0,0.1-0.1,0.2-0.1c0,0,0.1,0,0.1,0
						c-0.2-0.1-0.4-0.2-0.5-0.3c0,0-0.1,0-0.1,0c-0.1,0-0.1,0.1-0.2,0.1C42.2,33.4,42.1,33.4,42,33.5C42,33.4,42,33.5,42,33.5
						L42,33.5z"/>
				</g>
			</g>
			<g>
				<g>
					<path d="M44,34c-0.9,0.9-0.3,2.2,0.2,3.1c0.3,0.5,0.6,1,1,1.5c0.4,0.4,0.8,0.8,1.3,0.9c0,0,0.2-0.1,0.3-0.1
						c0,0,0.2-0.2,0.3-0.2c-0.5-0.1-1-0.5-1.3-0.9c-0.4-0.5-0.8-1-1.1-1.5c-0.5-0.9-1.1-2.2-0.2-3.1C44.4,33.9,44.2,33.9,44,34
						L44,34z"/>
				</g>
			</g>
			<g>
				<g>
					<path d="M40.6,29c-0.1,1.3,0.1,2.6,0.9,3.7c0.6,0.9,1.6,1.7,2.7,1.9c0.1,0,0.2-0.1,0.3-0.1c0,0,0.2-0.2,0.3-0.2
						c-1.1-0.2-2.1-0.9-2.7-1.9c-0.7-1.1-1-2.4-0.9-3.7c0,0-0.2,0.1-0.3,0.1C40.8,28.8,40.6,28.9,40.6,29L40.6,29z"/>
				</g>
			</g>
			<g>
				<g>
					<path d="M41.1,33c-0.7,2.4,0.9,5.1,3.5,5.4c0.1,0,0.2-0.1,0.3-0.1c0.1,0,0.2-0.2,0.3-0.2c-2.5-0.3-4.2-3-3.5-5.4
						c0,0-0.2,0.1-0.3,0.1C41.3,32.9,41.1,33,41.1,33L41.1,33z"/>
				</g>
			</g>
			<g>
				<g>
					<path d="M37.8,26c-0.3,1.2-0.2,2.5,0.3,3.7c0.2,0.6,0.5,1.1,0.9,1.6c0.4,0.5,0.8,1,1.4,1.1c0.1,0,0.4-0.3,0.5-0.3
						c-0.6-0.1-1.1-0.6-1.4-1.1c-0.4-0.5-0.7-1.1-0.9-1.7c-0.4-1.2-0.5-2.5-0.3-3.7C38.3,25.8,37.8,25.9,37.8,26L37.8,26z"/>
				</g>
			</g>
			<g>
				<g>
					<path d="M39.7,34.6c-0.2,1-0.2,2.1,0.2,3c0.3,0.8,0.9,1.5,1.7,1.8c0,0,0.2-0.1,0.3-0.1c0,0,0.2-0.2,0.3-0.2
						c-0.8-0.3-1.4-1-1.7-1.8c-0.4-1-0.4-2-0.2-3c0,0-0.2,0.1-0.3,0.1C39.9,34.5,39.7,34.6,39.7,34.6L39.7,34.6z"/>
				</g>
			</g>
			<g>
				<g>
					<path d="M42.1,37.3c-0.2,0.5-0.2,1.1-0.1,1.7c0.1,0.6,0.3,1.2,0.5,1.7c0.4,1,1.3,1.9,2.4,2c0.1,0,0.2-0.1,0.3-0.1
						c0.1,0,0.2-0.2,0.3-0.2c-1.1-0.1-2-1-2.4-2c-0.2-0.5-0.4-1.1-0.5-1.7c-0.1-0.6-0.2-1.2,0.1-1.7c0,0-0.2,0.1-0.3,0.1
						C42.3,37.2,42.2,37.3,42.1,37.3L42.1,37.3z"/>
				</g>
			</g>
			<g>
				<g>
					<path d="M36.1,26.9c-0.8,1.9,0.1,4.2,1.9,5.1c0,0,0.2-0.1,0.3-0.1c0,0,0.2-0.2,0.3-0.2c-1.9-0.9-2.7-3.2-1.9-5.1
						c0,0-0.2,0.1-0.3,0.1C36.3,26.8,36.1,26.8,36.1,26.9L36.1,26.9z"/>
				</g>
			</g>
			<g>
				<g>
					<path d="M66.1,26.6c0,0.8-0.1,1.5,0,2.3c0.1,0.8,0.5,1.4,1.1,1.9c0.6,0.6,1.2,1.1,1.9,1.5c0.2,0.1,0.4,0.3,0.6,0.2
						c0.1-0.1,0.5-0.2,0.5-0.4c0,0.1-0.5,0.2-0.5,0.3c0,0,0,0.1-0.1,0.1c0.2-0.1,0.3-0.2,0.5-0.3c-0.3,0.1-0.5-0.1-0.7-0.3
						c-0.3-0.2-0.5-0.4-0.8-0.6c-0.5-0.4-1-0.9-1.4-1.4c-0.9-1.1-0.5-2.4-0.5-3.7C66.6,26.4,66.1,26.5,66.1,26.6L66.1,26.6z"/>
				</g>
			</g>
			<g>
				<g>
					<path d="M63,20.9c-0.5,1.1-0.3,2.5,0.3,3.5C64,25.5,65,26.3,66,27c0.1,0.1,0.4-0.3,0.5-0.3c-1-0.7-2-1.4-2.7-2.5
						c-0.6-1.1-0.9-2.4-0.3-3.5C63.5,20.8,63.1,20.8,63,20.9L63,20.9z"/>
				</g>
			</g>
			<g>
				<g>
					<path d="M62.2,16.8c-0.4,1.3,0.1,2.7,0.7,3.8c0.6,1,1.6,2.3,3,1.8c0.2-0.1,0.3-0.2,0.5-0.3c-1.3,0.5-2.4-0.8-3-1.8
						c-0.6-1.1-1.1-2.5-0.7-3.8c0,0-0.2,0.1-0.3,0.1C62.4,16.7,62.2,16.8,62.2,16.8L62.2,16.8z"/>
				</g>
			</g>
			<g>
				<g>
					<path d="M68.3,23.6c-0.7,1.2-0.7,2.6-0.1,3.8c0.3,0.6,0.7,1,1.1,1.5c0.2,0.2,0.5,0.4,0.8,0.6c0.3,0.2,0.6,0.4,0.9,0.4
						c0.2,0,0.3-0.3,0.5-0.3c-0.4,0.1-0.7-0.2-0.9-0.4c-0.3-0.2-0.5-0.4-0.8-0.6c-0.5-0.4-0.8-0.9-1.1-1.5c-0.6-1.2-0.6-2.6,0.1-3.8
						C68.7,23.5,68.4,23.5,68.3,23.6L68.3,23.6z"/>
				</g>
			</g>
			<g>
				<g>
					<path d="M64.1,14.7c-0.2,1,0.1,2.1,0.6,3c0.3,0.4,0.6,0.8,1,1.1c0.4,0.3,0.9,0.7,1.5,0.7c0.1,0,0.2-0.1,0.3-0.1
						c0.1,0,0.2-0.2,0.3-0.2c-0.5,0-1.1-0.4-1.5-0.7c-0.4-0.3-0.8-0.7-1-1.1c-0.5-0.9-0.8-1.9-0.6-3c0,0-0.2,0.1-0.3,0.1
						C64.4,14.6,64.1,14.7,64.1,14.7L64.1,14.7z"/>
				</g>
			</g>
			<g>
				<g>
					<path d="M63.1,10.9c-0.2,1.1-0.1,2.3,0.5,3.3c0.5,0.9,1.4,1.6,2.3,2c0,0,0.2-0.1,0.3-0.1s0.2-0.2,0.3-0.2c-1-0.4-1.8-1.1-2.3-2
						c-0.6-1-0.7-2.2-0.5-3.3c0,0-0.2,0.1-0.3,0.1C63.3,10.8,63.1,10.8,63.1,10.9L63.1,10.9z"/>
				</g>
			</g>
			<g>
				<g>
					<path d="M67.1,19.6c0.2,0.9,0.4,1.8,1,2.6c0.5,0.6,1.3,1.1,2.1,1c0.1,0,0.2-0.1,0.3-0.1c0.1,0,0.2-0.1,0.3-0.2
						c-0.8,0-1.6-0.4-2.1-1c-0.6-0.7-0.8-1.7-1-2.6C67.7,19.3,67.1,19.5,67.1,19.6L67.1,19.6z"/>
				</g>
			</g>
			<g>
				<g>
					<path d="M64.7,22.4c-0.1,1-0.1,2.1,0.4,3c0.5,0.7,1.3,1.2,2.2,1.1c0.1,0,0.2-0.1,0.3-0.1c0.1,0,0.2-0.1,0.3-0.2
						c-0.9,0.1-1.7-0.4-2.2-1.1c-0.5-0.9-0.5-2-0.4-3c0,0-0.2,0.1-0.3,0.1C64.9,22.2,64.7,22.3,64.7,22.4L64.7,22.4z"/>
				</g>
			</g>
			<g>
				<g>
					<path d="M69.7,18.4c0,0.8-0.2,1.6-0.2,2.4c0.1,0.8,0.5,1.4,1.1,1.9c0.6,0.6,1.3,1,2,1.4c0.2,0.1,0.4,0.2,0.6,0.1
						c0.1-0.1,0.5-0.2,0.5-0.4c0,0.1-0.5,0.2-0.5,0.3c0,0.1,0,0.1-0.1,0.1c0.2-0.1,0.3-0.2,0.5-0.3c-0.2,0.1-0.5-0.1-0.7-0.2
						c-0.3-0.2-0.6-0.4-0.9-0.6c-0.6-0.4-1.1-0.8-1.6-1.3c-0.9-1.1-0.5-2.5-0.4-3.8C70.2,18.2,69.7,18.3,69.7,18.4L69.7,18.4z"/>
				</g>
			</g>
			<g>
				<g>
					<path d="M66.6,12.8c-0.6,1.1-0.5,2.5,0.2,3.6c0.7,1.1,1.8,1.8,2.9,2.4c0.1,0.1,0.4-0.3,0.5-0.3c-1.1-0.6-2.2-1.3-2.9-2.4
						c-0.7-1.1-0.8-2.5-0.2-3.6C67,12.7,66.7,12.7,66.6,12.8L66.6,12.8z"/>
				</g>
			</g>
			<g>
				<g>
					<path d="M65.9,8.7c-0.5,1.3,0,2.8,0.7,4c0.6,1.1,1.8,2.2,3.1,1.6c0.2-0.1,0.3-0.2,0.5-0.3c-1.4,0.5-2.5-0.5-3.1-1.6
						c-0.7-1.2-1.1-2.6-0.7-4c0,0-0.2,0.1-0.3,0.1C66.1,8.6,65.9,8.6,65.9,8.7L65.9,8.7z"/>
				</g>
			</g>
			<g>
				<g>
					<path d="M88.7,29c-1.8,0.1-3.4,0.7-4.9,1.5c-1.2,0.6-2.3,1.2-3.4,1.9c-1.3,0.8-2.3,1.8-2.9,3.3c-0.3,0.8-0.6,1.6-1.1,2.3
						c-0.5,0.6-1.1,1-1.7,1.5c-0.6,0.4-1.2,0.9-1.8,1.3c-0.5,0.4-1.3,1-1.4,1.7c-0.2,1.7,3.2,0.7,3.9,0.4c2.8-1.1,4.9-3.2,6.4-5.8
						c0.5-0.8,0.8-1.7,1.4-2.4c0.3-0.4,0.6-0.7,0.9-1c0.1,0,0.1-0.1,0.2-0.1c0.4-0.3,0.4-0.3,0,0c0-0.1,0.5-0.2,0.5-0.3
						c1-0.6,2.3-1.1,2.8-2.2c-0.1,0.3-0.9,0.3-1,0.6c-0.1,0.3-0.3,0.5-0.5,0.7c-0.1,0.1-0.6,0.5-0.4,0.4c0.3-0.2-0.2,0.1-0.2,0.1
						c-0.1,0.1-0.2,0.1-0.3,0.2c-0.2,0.1-0.4,0.2-0.5,0.3c-0.9,0.5-1.6,1-2.2,1.8c-0.9,1.2-1.4,2.6-2.2,3.8
						c-0.8,1.2-1.8,2.4-3.1,3.2c0.4-0.3-0.2,0.1-0.3,0.1c-0.2,0.1-0.4,0.2-0.6,0.2c-0.3,0.1-0.6,0.2-0.9,0.3c-0.6,0.1-1.5,0.3-2.1,0
						c-1.5-0.5,0.3-2.1,0.9-2.6c1-0.8,2.2-1.4,3.1-2.4c1-1,1.2-2.4,1.9-3.6c0.8-1.4,2.2-2.2,3.6-2.9c1.6-0.8,3.3-1.5,5.1-1.6
						C88,29.6,88.4,29,88.7,29L88.7,29z"/>
				</g>
			</g>
			<g>
				<g>
					<path d="M81.5,33.2c-0.3,1.5-0.9,2.9-1.8,4.1c-0.4,0.6-1,1.1-1.5,1.6c-0.1,0.1-0.3,0.2-0.4,0.3c-0.1,0.1-0.2,0.1-0.3,0.2
						c-0.4,0.3,0.7-0.4,0.3-0.2c-0.4,0.2-0.7,0.3-1.1,0.5c-0.4,0.1-0.7,0.5-1,0.6c0.9-0.3,1.7-0.8,2.5-1.3c0.7-0.4,1.4-1,2-1.6
						c1.3-1.3,2.1-3,2.5-4.8c0,0.1-0.5,0.3-0.5,0.3C82,32.9,81.6,33.1,81.5,33.2L81.5,33.2z"/>
				</g>
			</g>
			<g>
				<g>
					<path d="M55.6,7.8c-2.1-0.1-4.1-0.2-6.2-0.3c-0.7,0-1.5-0.2-2.2,0.1c-0.4,0.2-0.8,0.4-1.1,0.7c-0.6,0.5-0.3,1.2-0.1,1.8
						c0.2,0.8,0.1,1.3-0.5,1.9c0.3-0.3,0,0-0.2,0c-0.1,0-0.3,0.1-0.4,0.1c-0.4,0.1-0.8,0.2-1.1,0.4c-0.4,0.2-0.8,0.4-1.2,0.6
						c-1.2,0.7-1.2,2.1-1.9,3.2C40,17.2,39,18,38,18.6c-1.9,1.1-4.1,1.9-5.8,3.4c-0.6,0.5-2.7,2.6-1.4,3.3c0.6,0.3,1.3,0,1.9-0.3
						c1.1-0.5,2.1-1.1,3.2-1.6c0.3-0.2,0.7-0.5,1-0.6c-0.7,0.4-1.4,0.7-2.1,1.1c-0.7,0.3-1.4,0.8-2.1,0.9c-0.4,0-0.9,0-1.1-0.4
						c-0.2-0.5,0.1-1.1,0.4-1.5c1.1-1.8,2.9-2.5,4.6-3.4c1.5-0.8,3-1.6,4.2-2.7c0.7-0.7,1.2-1.5,1.5-2.5c0-0.1,0.6-1.7,0.9-1.6
						c0.1,0.1-0.6,0.2-0.1,0.1c0.2,0,0.3-0.1,0.5-0.2c0.3-0.1,0.6-0.2,0.9-0.3c0.7-0.3,1.7-0.7,2.2-1.3c0.5-0.5,0.5-1,0.4-1.6
						c-0.1-0.6-0.5-1.5,0.2-1.9c-0.3,0.2-0.6,0.4-1,0.6C46.8,7.9,47.4,8,48.1,8c0.7,0,1.4,0.1,2.1,0.1c1.5,0.1,3,0.2,4.4,0.2
						C54.9,8.4,55.3,7.7,55.6,7.8L55.6,7.8z"/>
				</g>
			</g>
		</g>
	</g>
	<g>
	</g>
	<g>
	</g>
	<g>
	</g>
	<g>
	</g>
	<g>
	</g>
	<g>
	</g>
</g>
</svg>
