<?xml version="1.0" encoding="utf-8"?>
<!-- Generator: Adobe Illustrator 28.1.0, SVG Export Plug-In . SVG Version: 6.00 Build 0)  -->
<svg version="1.1" id="Layer_1" xmlns="http://www.w3.org/2000/svg" xmlns:xlink="http://www.w3.org/1999/xlink" x="0px" y="0px"
	 viewBox="0 0 41.6 53.8" style="enable-background:new 0 0 41.6 53.8;" xml:space="preserve">
<g>
	<path d="M13.3,20.8c-0.7,0.2-1.4,0.4-2,0.6C10.1,21.7,9,22,7.9,22.2c-2.6,0.4-4.5-0.8-5.1-3.3c-0.2-0.9-0.3-1.8-0.3-2.7
		c0-1.9-0.1-3.7,0-5.6c0-1.4,0.2-2.7,0.8-4C3.9,4.7,5.4,3.7,7.7,4c2.5,0.3,4.7,1.4,6.9,2.6c1.4,0.8,2.8,1.8,4,2.8
		c0.4,0.3,0.6,0.5,1.1,0.2c0.4-0.2,0.9-0.1,1.3,0.2c0.6,0.4,1.2,0.3,1.8,0.3c0.9,0,1.3-0.5,1.8-1.1c1.8-2.3,4.1-4.1,6.8-5.3
		c0.7-0.3,1.4-0.5,2.1-0.6c2.1-0.4,3.9,0.5,4.9,2.4c0.7,1.3,1.1,2.8,1.3,4.3c0.4,2.5,0.6,5.1,0.6,7.6c0,0.7-0.1,1.4-0.2,2.1
		c-0.4,1.8-1.7,2.8-3.5,2.8c-1.2,0-2.4-0.3-3.5-0.9c-1.4-0.7-2.8-1.5-4.2-2.3c-0.2-0.1-0.5-0.4-0.8-0.3c0,0.1-0.1,0.1-0.1,0.2
		c0.9,2.7,1.3,5.6,1.9,8.4c1,4.5,2.6,8.9,4.3,13.2c0.7,1.8,1.5,3.5,2.1,5.4c0.2,0.8,0.4,1.6,0.4,2.4c0,1.4-0.8,2.1-2.2,1.9
		c-0.7-0.1-1.2-0.4-1.8-0.8c-1.1-0.7-2.1-1.6-3.2-2.4c-1.1-0.8-2.1-1.7-3.2-2.5c-1.7-1.3-2.5-3-2.5-5.2c0-2.1,0.1-4.2,0.2-6.4
		c0.1-1.8,0.1-3.6,0-5.3c-0.1-2.5-0.3-5-1-7.4c-0.1-0.2-0.1-0.4-0.2-0.6c-0.2-0.5-0.2-0.5-0.7-0.3c-0.8,0.4-1,0.4-2-0.5
		c-0.2,1.5-0.5,3-0.7,4.5c-0.8,5.5-1.4,10.9-2.4,16.4c-0.1,0.6-0.3,1.2-0.4,1.8c-0.3,1.3-0.9,2.4-2,3.3c-1.3,1-2.2,2.2-3.2,3.4
		c-1.1,1.3-2.2,2.5-3.6,3.4c-0.5,0.3-1.1,0.6-1.7,0.7c-1,0.2-1.7-0.4-1.8-1.4c-0.1-0.7,0-1.4,0.3-2.1c0.3-1.2,0.8-2.3,1.3-3.4
		C7.9,41,9.2,36.2,10,31.2c0.5-2.8,1.1-5.5,2.3-8c0.3-0.8,0.7-1.5,1.1-2.2C13.3,20.9,13.3,20.8,13.3,20.8z M3,12
		c-0.1,1.1,0.1,2.3,0.2,3.5c0.1,1.1,0,3.3,0.4,4.3c0.5,1.3,1.2,1.8,2.6,2c1.1,0.2,2.9-0.3,4-0.5c3-0.6,5.6-1.9,8.4-3.3
		c1.2-0.6,1.2-0.6,0.8-1.8c-0.4-1.5-0.8-3.1-0.7-4.7c0-0.4-0.2-0.5-0.5-0.6c-0.9-1-2.8-2.3-3.6-2.9c-1.5-1.1-2.4-1.5-4-2.3
		C9.3,5,8.3,5,6.7,4.9C5.3,4.8,4.4,5.4,3.9,6.6c-0.2,0.3-0.3,0.7-0.4,1C3.1,9,3,10.4,3,12z M19.6,18.4c-0.3,0-0.5,0.1-0.7,0.2
		c-1,0.5-2,1-3.1,1.3c-0.6,0.2-1.6,0.6-1.8,1.2c-1.1,2.7-2.1,5-2.8,7.8c-0.6,2.5-1,5.1-1.8,7.5c-0.9,3-1.4,6.2-2.7,9
		C6.1,46.9,5.4,48.4,5,50c-0.1,0.3-0.1,0.6-0.1,0.9c0,0.8,0.5,1.2,1.3,1c0.4-0.1,0.9-0.3,1.2-0.6c1.3-0.9,2.3-2,3.4-3.2
		c1.1-1.2,2-2.6,3.3-3.5c1.2-0.9,1.8-2.1,2.1-3.5c0.5-2.3,0.9-4.7,1.3-7c0.5-3.5,1-7,1.5-10.5C19.1,21.8,19.4,20.1,19.6,18.4z
		 M39.5,16.3c-0.1-2.5-0.3-5.2-0.9-7.8c-0.2-0.9-0.5-1.8-1.1-2.6c-0.7-1.1-1.7-2.1-3-2c-0.6,0.1-1.4,0.2-2,0.5
		c-1.9,0.8-3.8,1.9-5.4,3.2c-1.2,1-1.9,3-3.2,3.8c-0.3,0.2-0.2,0.4-0.1,0.6c0.2,1,0.3,1.9,0.2,2.9C24,15.9,24,16,25,16.4
		c2.5,1,4.8,2.3,7.1,3.7c0.6,0.4,1.2,0.7,1.8,1c0.6,0.3,1.2,0.5,1.9,0.6c1.5,0.2,3.1-0.3,3.6-2.4C39.5,18.3,39.5,17.4,39.5,16.3z
		 M24.9,27.2c0.1,3.6,0.2,7.2-0.1,10.8c-0.1,1.5-0.1,2.9,0.6,4.3c0.4,0.9,1.2,1.5,1.9,2.1c1.6,1.3,3.3,2.5,4.9,3.8
		c0.5,0.4,1.1,0.8,1.8,1.1c0.3,0.1,0.6,0.2,0.9,0.3c0.8,0.1,1.1-0.2,1.2-1c0-0.5,0-1.1-0.1-1.6c-0.3-1-0.6-2-1.1-3
		c-1.2-3-2.5-5.9-3.6-9c-1.4-4-2.3-8.1-3.2-12.3c-0.3-1.3-0.6-2.6-1-3.8c-0.1-0.3-0.2-0.7-0.6-0.8c-0.7-0.3-3.2-2-3.1-0.1
		c0,0.3,0.1,0.6,0.2,0.8C24.6,21.5,24.8,24.3,24.9,27.2C24.9,27.2,24.9,27.2,24.9,27.2z M19.4,12.5c0.1,2,0.6,3.9,1.5,5.7
		c0.1,0.2,0.2,0.4,0.3,0.4c0.3,0.2,0.7-0.1,0.9-0.3c0.9-0.9,1.2-2.3,1.3-3.6c0-0.7,0-1.4-0.1-2.1c0-0.3-0.1-0.6-0.3-0.8
		c-0.4-0.6-1.1-0.5-1.7-0.6c-0.5-0.1-1.2-0.6-1.7-0.2c-0.2,0.2-0.3,0.5-0.3,0.9C19.4,12,19.4,12.2,19.4,12.5z"/>
	<path d="M10.4,10.1c0.6,0.1,1.1,0.3,1.7,0.5c1.4,0.6,2.8,1.2,4.3,1.7c0.2,0.1,0.4,0.1,0.5,0.2c0.1,0.1,0.2,0.2,0.2,0.3
		c0,0.1-0.2,0.1-0.3,0.1c-0.3,0-0.6,0-0.9-0.1c-1.4-0.2-2.6-0.7-3.9-1.2c-1.2-0.5-2.4-1-3.8-0.9c-0.2,0-0.3,0-0.4-0.2
		c0-0.1,0-0.2,0.1-0.3c0.2-0.2,0.5-0.3,0.9-0.3C9.4,9.9,9.9,10,10.4,10.1z"/>
	<path d="M8.3,17.8c0-0.3,0.3-0.4,0.6-0.5c1.7-0.6,3.4-1.2,5-1.7c0.1,0,0.3-0.1,0.4,0c0.1,0.2-0.1,0.3-0.2,0.4
		c-0.1,0.1-0.3,0.1-0.4,0.2c-1.5,0.6-3.1,1.1-4.6,1.6C8.8,17.9,8.6,18.1,8.3,17.8z"/>
	<path d="M10.5,42.7c-0.1-0.4,0.1-0.6,0.2-0.9c0.7-1.5,1.4-3,2-4.5c0.9-2.4,1.5-4.9,1.6-7.5c0.1-1.9,0.1-3.8,0.4-5.7
		c0.1-0.7,0.3-1.4,0.5-2.1c0.1-0.3,0.3-0.6,0.7-0.8c0.1-0.1,0.2-0.1,0.3,0c0.1,0.1,0.1,0.2,0,0.3c-0.6,1.5-1,2.5-1.2,4.8
		c-0.3,4.3-1.1,10.2-3.2,13.9c-0.3,0.7-0.6,1.3-1,1.9C10.8,42.4,10.8,42.6,10.5,42.7z"/>
	<path d="M10.8,45.6c-0.1-0.3,0.1-0.5,0.3-0.7c1.3-1.8,2.2-3.8,2.6-6.2c0-0.1,0-0.2,0.1-0.3c0-0.1,0.1-0.1,0.2-0.2
		c0.1,0,0.2,0.1,0.2,0.2c0,0.1,0,0.2,0,0.3c-0.4,2.6-1.3,4.8-2.9,6.6C11.1,45.5,11,45.6,10.8,45.6z"/>
	<path d="M34.9,18.4c-0.4,0-0.9,0-1.2-0.2c-0.6-0.2-1.1-0.5-1.7-0.7c-1.1-0.4-2.1-0.8-3.2-1.2c-0.6-0.2-1.3-0.4-1.9-0.4
		c-0.2,0-0.5,0-0.7-0.1c-0.5-0.2-0.4-0.7,0.1-0.8c0.5-0.1,1,0.1,1.5,0.2c0.5,0.1,1.1,0.3,1.6,0.4c1.1,0.3,2.1,0.7,3.1,1.2
		c0.5,0.3,0.9,0.5,1.5,0.8c0.5,0.2,1.1,0.3,1.6,0.3c0.5-0.1,1-0.3,1.4-0.6c0.1-0.1,1-0.8,1-0.5c0,0.4-0.5,0.9-0.8,1.1
		c-0.5,0.3-1,0.5-1.5,0.5C35.4,18.4,35.1,18.4,34.9,18.4z"/>
	<path d="M34.2,8.8c-0.1,0.5-0.4,0.7-0.7,0.9c-1.6,1.3-3.5,2.1-5.5,2.4c-1,0.1-1.9,0.5-2.7,1.2c-0.1,0.1-0.2,0.3-0.4,0.2
		c-0.2-0.1-0.2-0.3-0.1-0.5c0.2-1,1.2-1.7,2.4-1.8c0.6-0.1,1.3-0.1,1.9-0.1c1.5-0.1,2.9-0.7,4.1-1.6C33.4,9.2,33.7,8.9,34.2,8.8z"/>
	<path d="M28,41.2c-0.3,0-0.4-0.4-0.5-0.6c-0.5-1.3-0.5-3.5-0.7-4.9c-0.3-2.1,0.1-3.3,0.1-5.4c0-1.6,0-3-0.2-4.6
		c-0.1-1-0.7-2.2-1.1-3.1c-0.1-0.2-0.2-0.4,0-0.5c0.2-0.2,0.3,0.1,0.5,0.3c0.3,0.4,0.4,0.8,0.6,1.2c0.4,1,0.5,2.1,0.6,3.2
		c0.3,2.6-0.1,5.3-0.1,7.9c0,1.4,0,2.8,0.4,4.2c0.1,0.6,0.3,1.2,0.4,1.7C28,40.7,28.2,41,28,41.2z"/>
	<path d="M32.9,45.9c-0.3,0-0.5-0.3-0.6-0.5c-0.8-1.2-1.3-2.4-1.9-3.7c-0.2-0.6-0.5-1.2-0.8-1.8c-0.2-0.4-0.5-0.8-0.9-1
		c-0.1-0.1-0.1-0.2-0.1-0.3c0-0.1,0.1-0.1,0.2-0.1c0.3,0.1,0.6,0.3,0.8,0.6c0.3,0.4,0.6,0.9,0.8,1.3c0.7,1.6,1.4,3.3,2.3,4.9
		C32.9,45.4,33.1,45.6,32.9,45.9z"/>
</g>
</svg>
