<?xml version="1.0" encoding="iso-8859-1"?>
<!-- Generator: Adobe Illustrator 28.3.0, SVG Export Plug-In . SVG Version: 6.00 Build 0)  -->
<svg version="1.1" id="Layer_1" xmlns="http://www.w3.org/2000/svg" xmlns:xlink="http://www.w3.org/1999/xlink" x="0px" y="0px"
	 width="162.122px" height="112.042px" viewBox="0 0 162.122 112.042" enable-background="new 0 0 162.122 112.042"
	 xml:space="preserve">
<g>
	<g>
		<g>
			<path d="M84.956,27.757c-0.577-0.536-1.36-0.415-1.992-0.03c-0.3,0.183-0.597,0.411-0.748,0.736
				c-0.163,0.35-0.17,0.753-0.199,1.131c-0.074,0.965-0.124,1.935-0.129,2.904c-0.002,0.394,0.017,0.79,0.208,1.145
				c0.188,0.349,0.499,0.595,0.822,0.813c1.013,0.684,2.574,1.862,3.55,0.491c0.214-0.3,0.391-0.626,0.404-1
				c0.016-0.439-0.135-0.853-0.238-1.273c-0.124-0.511-0.073-1.011-0.008-1.526c0.07-0.551,0.138-1.121-0.038-1.66
				c-0.258-0.787-0.924-1.327-1.591-1.766c-0.211-0.139-0.929,0.172-0.619,0.376c0.9,0.593,1.593,1.364,1.539,2.492
				c-0.038,0.798-0.249,1.557-0.045,2.352c0.078,0.302,0.181,0.604,0.21,0.917c0.037,0.4-0.088,0.701-0.309,1.027
				c-0.19,0.282-0.212,0.319-0.515,0.204c-0.266-0.101-0.517-0.25-0.76-0.397c-0.491-0.297-1.067-0.595-1.45-1.027
				c-0.505-0.569-0.387-1.401-0.366-2.104c0.026-0.841,0.061-1.687,0.149-2.524c0.034-0.324,0.086-0.644,0.336-0.874
				c0.35-0.321,0.69-0.45,1.065-0.102C84.434,28.247,85.166,27.951,84.956,27.757L84.956,27.757z"/>
		</g>
	</g>
	<g>
		<g>
			<path d="M86.348,29.146c4.623-4.103,9.272-8.179,13.922-12.252c2.402-2.103,5.214-4.318,8.601-4.099
				c2.874,0.186,4.958,2.461,5.903,5.029c0.494,1.341,0.548,2.737,0.621,4.149c0.08,1.552,0.513,2.986,0.679,4.515
				c0.284,2.618-0.611,5.167-0.466,7.783c0.071,1.288,0.335,2.597,0.027,3.874c-0.342,1.417-1.344,2.592-2.556,3.357
				c-2.286,1.445-5.207,1.423-7.726,0.7c-3.233-0.928-6.071-2.839-9.061-4.318c-2.907-1.438-5.945-2.581-9.064-3.465
				c-0.248-0.07-0.912,0.299-0.476,0.422c3.51,0.995,6.899,2.34,10.13,4.036c2.854,1.499,5.657,3.252,8.84,3.963
				c4.144,0.926,10.497-0.596,10.827-5.739c0.09-1.397-0.233-2.783-0.179-4.181c0.06-1.568,0.439-3.104,0.525-4.671
				c0.085-1.56-0.278-2.933-0.536-4.449c-0.305-1.791-0.09-3.644-0.557-5.413c-0.651-2.462-2.382-4.866-4.865-5.697
				c-2.383-0.797-5.011-0.162-7.153,1.01c-3.275,1.793-5.975,4.701-8.76,7.146c-3.101,2.722-6.212,5.432-9.298,8.171
				C85.39,29.315,86.157,29.316,86.348,29.146L86.348,29.146z"/>
		</g>
	</g>
	<g>
		<g>
			<path d="M86.92,31.095c4.399-1.073,8.295-3.695,11.348-6.997c1.544-1.67,2.767-3.595,4.488-5.108
				c0.88-0.774,1.853-1.447,2.929-1.918c0.535-0.234,1.092-0.417,1.662-0.547c1.175-0.269,1.913,0.057,2.558,0.981
				c0.801,1.148,1.228,2.644,1.65,3.964c0.405,1.265,0.735,2.558,0.94,3.871c0.268,1.719,0.326,3.476-0.057,5.181
				c-0.214,0.95-0.301,1.843-0.167,2.811c0.123,0.886,0.424,1.762,0.444,2.66c0.035,1.567-1.185,3.149-2.698,3.587
				c-1.119,0.324-2.61,0.019-3.73-0.203c-1.283-0.253-2.481-0.84-3.71-1.268c-1.702-0.593-3.412-1.162-5.118-1.742
				c-3.567-1.214-7.134-2.429-10.701-3.643c-0.235-0.08-0.938,0.268-0.619,0.376c3.722,1.267,7.444,2.534,11.166,3.801
				c1.692,0.576,3.394,1.129,5.077,1.732c1.041,0.373,2.054,0.856,3.136,1.105c1.913,0.44,4.235,0.776,5.944-0.405
				c2.036-1.407,2.182-3.134,1.738-5.366c-0.428-2.151,0.3-4.053,0.294-6.189c-0.008-2.737-0.724-5.449-1.673-7.998
				c-0.782-2.1-1.7-4.236-4.274-3.709c-2.295,0.47-4.293,1.689-5.968,3.303c-1.988,1.917-3.447,4.271-5.49,6.147
				c-2.645,2.427-5.763,4.329-9.271,5.184C86.347,30.821,86.45,31.21,86.92,31.095L86.92,31.095z"/>
		</g>
	</g>
	<g>
		<g>
			<path d="M83.072,28.092c-2.623-2.279-5.218-4.589-7.819-6.892c-2.494-2.209-4.937-4.558-7.62-6.538
				c-2.173-1.604-4.736-2.833-7.503-2.637c-2.495,0.176-4.614,1.603-5.903,3.722c-1.599,2.631-1.735,5.765-1.842,8.758
				c-0.125,3.482-0.426,7.013-0.317,10.496c0.081,2.613,0.919,4.981,3.213,6.415c1.981,1.238,4.483,1.576,6.771,1.289
				c3.183-0.399,6.072-1.963,8.864-3.442c3.768-1.996,7.641-3.632,11.755-4.772c0.463-0.128,0.365-0.519-0.104-0.389
				c-2.821,0.781-5.58,1.764-8.243,2.979c-2.595,1.185-5.036,2.685-7.648,3.832c-2.555,1.121-5.296,1.815-8.076,1.204
				c-2.42-0.532-4.546-2.02-5.327-4.447c-0.912-2.832-0.357-6.177-0.255-9.098c0.106-3.024-0.004-6.165,0.583-9.145
				c0.527-2.676,1.923-5.5,4.596-6.581c3.214-1.3,6.718,0.559,9.217,2.498c5.206,4.041,9.963,8.729,14.937,13.051
				C82.556,28.576,83.282,28.276,83.072,28.092L83.072,28.092z"/>
		</g>
	</g>
	<g>
		<g>
			<path d="M82.429,29.943c-1.898-0.038-3.683-1.283-5.191-2.314c-2.623-1.794-5.1-3.8-7.642-5.706
				c-1.479-1.109-3.044-2.133-4.485-3.288c-0.789-0.632-1.514-1.472-2.4-1.971c-1.738-0.98-3.955-0.391-4.845,1.379
				c-1.617,3.213-2.396,7.098-2.809,10.647c-0.3,2.576-0.42,5.342,0.559,7.799c0.718,1.803,1.969,2.667,3.831,3.132
				c2.529,0.632,5.475-0.715,7.824-1.54c1.998-0.702,3.641-1.894,5.45-2.953c2.865-1.677,6.145-1.977,9.407-1.994
				c0.292-0.001,0.825-0.444,0.303-0.441c-2.575,0.013-5.21,0.17-7.661,1.023c-1.545,0.538-2.887,1.398-4.256,2.271
				c-1.971,1.256-4.107,2.033-6.337,2.719c-2.224,0.683-5.101,1.099-6.849-0.853c-1.556-1.737-1.765-4.532-1.688-6.755
				c0.102-2.947,0.634-5.901,1.435-8.734c0.434-1.535,0.866-3.44,1.778-4.769c1.142-1.663,2.982-0.817,4.187,0.193
				c2.351,1.972,4.88,3.709,7.326,5.564c2.278,1.728,4.517,3.534,6.916,5.095c1.448,0.942,3.07,1.902,4.847,1.937
				C82.42,30.389,82.952,29.953,82.429,29.943L82.429,29.943z"/>
		</g>
	</g>
	<g>
		<g>
			<path d="M85.224,35.709c0.055,3.294,1.417,6.485,3.822,8.753c2.364,2.231,5.539,3.271,8.719,3.613
				c7.835,0.842,16.211-2.696,23.676,0.906c7.181,3.465,6.747,11.537,7.387,18.316c0.297,3.152,0.924,6.453,2.793,9.083
				c2.037,2.867,5.301,3.663,8.135,5.46c6.603,4.188,4.15,14.636,11.234,18.348c0.224,0.117,0.938-0.209,0.619-0.376
				c-6.239-3.27-4.887-11.949-9.243-16.711c-2.358-2.578-6.05-3.118-8.603-5.423c-2.511-2.267-3.503-5.664-3.962-8.909
				c-0.883-6.24,0.233-13.986-5.168-18.516c-5.64-4.731-13.552-3.197-20.232-2.638c-4.262,0.356-8.891,0.301-12.669-1.971
				c-3.541-2.129-5.66-6.043-5.729-10.143C85.998,35.258,85.219,35.408,85.224,35.709L85.224,35.709z"/>
		</g>
	</g>
	<g>
		<g>
			<path d="M86.339,34.82c1.43,6.415,7.647,11.452,14.125,11.946c7.928,0.605,15.514-4.335,23.444-2.357
				c3.826,0.954,6.514,3.702,7.795,7.383c1.362,3.915,1.13,8.083,1.117,12.162c-0.011,3.652,0.204,7.384,1.868,10.707
				c0.674,1.347,1.563,2.6,2.711,3.585c1.342,1.15,2.969,1.664,4.52,2.451c3.555,1.805,4.252,5.756,5.38,9.213
				c1.194,3.659,3.389,6.608,7.056,8.057c0.086-0.127,0.172-0.255,0.257-0.382c-1.447,0.421-2.831-0.018-3.871-1.07
				c-0.144-0.146-0.746-0.046-0.75,0.201c-0.022,1.428,0.451,2.648,1.451,3.669c0.189,0.194,0.927-0.095,0.722-0.304
				c-0.946-0.966-1.416-2.111-1.396-3.462c-0.25,0.067-0.5,0.134-0.75,0.201c1.261,1.276,2.993,1.651,4.697,1.155
				c0.097-0.028,0.539-0.271,0.257-0.382c-3.528-1.394-5.672-4.204-6.844-7.724c-0.907-2.725-1.436-5.858-3.483-8.018
				c-1.209-1.275-2.83-1.808-4.379-2.543c-1.599-0.759-2.911-1.897-3.917-3.349c-2.119-3.061-2.66-6.847-2.74-10.484
				c-0.15-6.761,0.966-15.664-5.638-19.965c-6.021-3.922-13.679-1.18-20.03,0.153c-4.71,0.989-9.41,1.105-13.635-1.483
				c-3.467-2.124-6.299-5.554-7.193-9.567C87.057,34.344,86.277,34.541,86.339,34.82L86.339,34.82z"/>
		</g>
	</g>
	<g>
		<g>
			<path d="M85.224,35.654c-0.064,3.677-1.947,7.09-4.933,9.22c-3.518,2.51-8.076,2.996-12.28,2.896
				c-7.692-0.184-15.911-2.403-23.195,1.151c-2.83,1.381-4.986,3.612-6.149,6.551c-1.288,3.256-1.355,6.813-1.601,10.257
				c-0.235,3.292-0.732,6.766-2.538,9.605c-2.137,3.359-5.766,4.223-9.071,5.99c-3.396,1.816-5.027,4.937-6.223,8.463
				c-1.298,3.828-2.554,8.181-6.521,10.054c-0.488,0.23-0.041,0.484,0.307,0.32c2.835-1.339,4.539-3.864,5.684-6.704
				c1.371-3.4,1.993-7.315,4.656-10.031c2.612-2.664,6.585-3.131,9.475-5.398c2.55-2,3.854-5.042,4.472-8.148
				c1.379-6.934-0.323-15.705,6.732-20.043c7.725-4.749,17.381-1.353,25.79-1.632c3.847-0.128,7.869-0.879,11.052-3.172
				c3.054-2.2,5.053-5.687,5.118-9.476C86.007,35.236,85.229,35.397,85.224,35.654L85.224,35.654z"/>
		</g>
	</g>
	<g>
		<g>
			<path d="M83.162,34.765c-0.851,3.507-3.117,6.489-6.097,8.49c-3.681,2.47-8.041,3.007-12.382,2.681
				c-7.674-0.576-15.587-4.048-23.255-1.531c-3.055,1.003-5.574,3.037-7.047,5.915c-1.64,3.204-1.909,6.804-1.901,10.343
				c0.009,4.187,0.315,8.541-1.34,12.493c-0.726,1.733-1.776,3.337-3.212,4.564c-1.666,1.423-3.729,1.893-5.642,2.856
				c-3.09,1.556-4.252,4.641-5.282,7.735c-0.609,1.827-1.232,3.681-2.382,5.25c-1.409,1.922-3.409,3.268-5.638,4.06
				C8.8,97.686,8.625,97.917,8.9,97.991c1.873,0.498,3.861,0.059,5.295-1.26c-0.234,0.013-0.467,0.027-0.701,0.04
				c0.029,1.35-0.505,2.489-1.499,3.398c-0.331,0.303,0.435,0.3,0.623,0.128c1.098-1.004,1.685-2.233,1.653-3.734
				c-0.006-0.261-0.612-0.041-0.701,0.04c-1.173,1.079-2.678,1.369-4.195,0.965c-0.028,0.124-0.056,0.247-0.084,0.371
				c3.151-1.119,5.775-3.29,7.21-6.338c1.403-2.978,1.792-6.58,4.039-9.109c1.47-1.655,3.551-2.14,5.484-3.035
				c1.433-0.663,2.7-1.617,3.731-2.814c2.371-2.754,3.273-6.37,3.472-9.923c0.24-4.269-0.361-8.607,0.61-12.814
				c0.926-4.011,3.303-7.491,7.271-8.961c3.955-1.465,8.415-1.089,12.479-0.332c4.351,0.81,8.694,1.855,13.147,1.855
				c7.522,0,15.313-4.012,17.204-11.801C84.009,34.383,83.227,34.499,83.162,34.765L83.162,34.765z"/>
		</g>
	</g>
</g>
<g>
</g>
<g>
</g>
<g>
</g>
<g>
</g>
<g>
</g>
<g>
</g>
</svg>
